<svg width="16" height="16" viewBox="0 0 16 16" fill="none" xmlns="http://www.w3.org/2000/svg">
<g clip-path="url(#clip0)">
<path d="M13.9055 10.6847C13.4755 11.8502 12.8251 12.8637 11.9722 13.6965C11.0013 14.6445 9.73011 15.3978 8.19373 15.9352C8.14331 15.9528 8.0907 15.9672 8.03784 15.9778C7.96802 15.9916 7.89698 15.999 7.82654 16H7.81275C7.73767 16 7.66223 15.9924 7.5874 15.9778C7.53455 15.9672 7.48267 15.9528 7.4325 15.9356C5.89429 15.3991 4.62146 14.6461 3.64966 13.6981C2.79638 12.8652 2.14611 11.8524 1.71667 10.6869C0.935787 8.56775 0.98022 6.23327 1.01599 4.3573L1.0166 4.32849C1.0238 4.17358 1.02844 4.01086 1.031 3.83117C1.04406 2.94897 1.74548 2.21911 2.6278 2.16992C4.46741 2.06725 5.8905 1.46728 7.10645 0.282096L7.11707 0.272331C7.31897 0.0871497 7.57337 -0.00367067 7.82654 0.000113528C8.07068 0.00328737 8.31385 0.0939857 8.50855 0.272331L8.51892 0.282096C9.73511 1.46728 11.1582 2.06725 12.9978 2.16992C13.8801 2.21911 14.5816 2.94897 14.5946 3.83117C14.5972 4.01208 14.6018 4.17456 14.609 4.32849L14.6094 4.34069C14.645 6.22021 14.6892 8.55933 13.9055 10.6847Z" fill="#288BFF"/>
<path d="M13.9055 10.6847C13.4754 11.8502 12.825 12.8637 11.9721 13.6965C11.0013 14.6445 9.73007 15.3978 8.1937 15.9352C8.14328 15.9528 8.09067 15.9672 8.03781 15.9778C7.96799 15.9916 7.89694 15.999 7.82651 16V0.000114441C8.07065 0.00328828 8.31381 0.0939866 8.50852 0.272331L8.51889 0.282097C9.73508 1.46728 11.1582 2.06726 12.9978 2.16992C13.8801 2.21911 14.5815 2.94897 14.5946 3.83117C14.5971 4.01208 14.6018 4.17456 14.609 4.32849L14.6094 4.34069C14.645 6.22021 14.6892 8.55933 13.9055 10.6847Z" fill="#1564C1"/>
<path d="M11.8 8C11.8 10.194 10.0186 11.9799 7.82651 11.9877H7.81247C5.61386 11.9877 3.8248 10.1987 3.8248 8C3.8248 5.80139 5.61386 4.01245 7.81247 4.01245H7.82651C10.0186 4.02026 11.8 5.80615 11.8 8Z" fill="white"/>
<path d="M11.8 8C11.8 10.194 10.0186 11.9799 7.82651 11.9877V4.01245C10.0186 4.02026 11.8 5.80615 11.8 8Z" fill="#E1EBF0"/>
<path d="M9.62241 7.42577L7.82651 9.22192L7.43845 9.60998C7.34677 9.70166 7.22653 9.74743 7.10642 9.74743C6.98618 9.74743 6.86606 9.70166 6.77426 9.60998L5.93991 8.77526C5.75656 8.59191 5.75656 8.29492 5.93991 8.11144C6.12302 7.92809 6.42038 7.92809 6.60373 8.11144L7.10642 8.61413L8.95859 6.76196C9.14194 6.57848 9.4393 6.57848 9.62241 6.76196C9.80576 6.94531 9.80576 7.24267 9.62241 7.42577Z" fill="#5FDFF4"/>
<path d="M9.6224 7.42577L7.82651 9.22192V7.89392L8.95859 6.76196C9.14194 6.57848 9.4393 6.57848 9.6224 6.76196C9.80575 6.94531 9.80575 7.24267 9.6224 7.42577Z" fill="#49B2C4"/>
</g>
<defs>
<clipPath id="clip0">
<rect width="16" height="16" fill="white"/>
</clipPath>
</defs>
</svg>
