<svg width="63" height="63" viewBox="0 0 63 63" fill="none" xmlns="http://www.w3.org/2000/svg">
<path d="M33.4534 0H26.1212C25.4246 0 24.8599 0.564661 24.8599 1.26135V2.87474H34.7147V1.26135C34.7148 0.564661 34.1501 0 33.4534 0Z" fill="#C3E9F1"/>
<path d="M39.2905 28.9897C38.439 28.9897 37.6455 28.4507 37.3615 27.5985C37.0065 26.533 37.5825 25.3814 38.648 25.0265L42.8807 23.6161C44.832 22.9659 46.1432 21.147 46.1432 19.0901V14.751C46.1432 14.4075 45.8638 14.1281 45.5204 14.1281H39.2908C38.1677 14.1281 37.2573 13.2177 37.2573 12.0946C37.2573 10.9716 38.1677 10.0612 39.2908 10.0612H45.5204C48.1063 10.0612 50.2102 12.165 50.2102 14.751V19.0901C50.2102 22.9006 47.7812 26.27 44.1662 27.4745L39.9336 28.8848C39.7204 28.956 39.5035 28.9897 39.2905 28.9897Z" fill="#5886FD"/>
<path d="M44.1937 59.5113H15.381C13.7441 59.5113 12.5177 58.0119 12.8423 56.4075L15.9735 40.9284C16.1322 40.1442 16.8215 39.5803 17.6216 39.5803H41.9532C42.7533 39.5803 43.4426 40.1441 43.6013 40.9284L46.7326 56.4075C47.057 58.0118 45.8306 59.5113 44.1937 59.5113Z" fill="#759BFF"/>
<path d="M21.6855 59.5113H16.9507V61.6248C16.9507 62.3843 17.5664 63 18.3259 63H20.3105C21.0699 63 21.6856 62.3843 21.6856 61.6248L21.6855 59.5113Z" fill="#5D6671"/>
<path d="M37.8893 59.5113H42.6241V61.6248C42.6241 62.3843 42.0084 63 41.249 63H39.2643C38.5049 63 37.8892 62.3843 37.8892 61.6248L37.8893 59.5113Z" fill="#5D6671"/>
<path d="M41.2736 34.6464H18.3012C17.5553 34.6464 16.9507 35.251 16.9507 35.9969V38.2297C16.9507 38.9756 17.5553 39.5803 18.3012 39.5803H41.2736C42.0195 39.5803 42.6241 38.9756 42.6241 38.2297V35.9969C42.6241 35.251 42.0195 34.6464 41.2736 34.6464Z" fill="#5886FD"/>
<path d="M41.0668 6.96936H18.5079V28.9834C18.5079 32.111 21.0433 34.6462 24.1708 34.6462H35.4038C38.5314 34.6462 41.0668 32.1109 41.0668 28.9834V6.96936Z" fill="#C3E9F1"/>
<path d="M41.0668 6.96936H18.5079V28.9834C18.5079 32.111 21.0433 34.6462 24.1708 34.6462H35.4038C38.5314 34.6462 41.0668 32.1109 41.0668 28.9834V6.96936Z" fill="#759BFF"/>
<path d="M41.5531 2.87474H18.0216C17.2557 2.87474 16.6348 3.49563 16.6348 4.2616V5.58238C16.6348 6.34835 17.2557 6.96924 18.0216 6.96924H41.5531C42.319 6.96924 42.94 6.34835 42.94 5.58238V4.2616C42.9399 3.49563 42.319 2.87474 41.5531 2.87474Z" fill="#5D6671"/>
<g opacity="0.1">
<path opacity="0.1" d="M37.1212 27.9354H33.2716C32.7619 27.9354 32.3488 27.5222 32.3488 27.0126C32.3488 26.5029 32.7619 26.0897 33.2716 26.0897H37.1212C37.6309 26.0897 38.0441 26.5029 38.0441 27.0126C38.0441 27.5222 37.6309 27.9354 37.1212 27.9354Z" fill="black"/>
<path opacity="0.1" d="M37.1213 23.9599H34.8503C34.3407 23.9599 33.9275 23.5467 33.9275 23.037C33.9275 22.5274 34.3407 22.1142 34.8503 22.1142H37.1213C37.631 22.1142 38.0441 22.5274 38.0441 23.037C38.0441 23.5467 37.631 23.9599 37.1213 23.9599Z" fill="black"/>
<path opacity="0.1" d="M37.1212 19.9844H33.2716C32.7619 19.9844 32.3488 19.5712 32.3488 19.0615C32.3488 18.5519 32.7619 18.1387 33.2716 18.1387H37.1212C37.6309 18.1387 38.0441 18.5519 38.0441 19.0615C38.0441 19.5712 37.6309 19.9844 37.1212 19.9844Z" fill="black"/>
<path opacity="0.1" d="M37.1213 16.009H34.8503C34.3407 16.009 33.9275 15.5958 33.9275 15.0861C33.9275 14.5765 34.3407 14.1633 34.8503 14.1633H37.1213C37.631 14.1633 38.0441 14.5765 38.0441 15.0861C38.0441 15.5958 37.631 16.009 37.1213 16.009Z" fill="black"/>
<path opacity="0.1" d="M37.1212 12.0334H33.2716C32.7619 12.0334 32.3488 11.6202 32.3488 11.1105C32.3488 10.6008 32.7619 10.1877 33.2716 10.1877H37.1212C37.6309 10.1877 38.0441 10.6008 38.0441 11.1105C38.0441 11.6203 37.6309 12.0334 37.1212 12.0334Z" fill="black"/>
</g>
<path opacity="0.1" d="M27.9601 27.9354C27.4504 27.9354 27.0372 27.5222 27.0372 27.0126V11.1105C27.0372 10.6008 27.4504 10.1877 27.9601 10.1877C28.4697 10.1877 28.8829 10.6008 28.8829 11.1105V27.0124C28.8829 27.5222 28.4697 27.9354 27.9601 27.9354Z" fill="black"/>
<path d="M29.7872 55.7967C32.5522 55.7967 34.7937 53.0329 34.7937 49.6235C34.7937 46.2141 32.5522 43.4502 29.7872 43.4502C27.0221 43.4502 24.7806 46.2141 24.7806 49.6235C24.7806 53.0329 27.0221 55.7967 29.7872 55.7967Z" fill="white"/>
<path d="M34.7822 49.2234C33.6571 47.6878 31.8394 46.6895 29.7874 46.6895C27.7354 46.6895 25.9177 47.6877 24.7926 49.2234C24.7857 49.3558 24.781 49.489 24.781 49.6236C24.781 53.0333 27.0224 55.7975 29.7875 55.7975C32.5525 55.7975 34.794 53.0333 34.794 49.6236C34.7938 49.4891 34.7891 49.3558 34.7822 49.2234Z" fill="#C3E9F1"/>
<path d="M29.7873 52.9989C30.7578 52.9989 31.5446 52.2121 31.5446 51.2415C31.5446 50.271 30.7578 49.4842 29.7873 49.4842C28.8167 49.4842 28.0299 50.271 28.0299 51.2415C28.0299 52.2121 28.8167 52.9989 29.7873 52.9989Z" fill="#5D6671"/>
<path opacity="0.1" d="M23.4501 39.5803H17.6216C16.8215 39.5803 16.1323 40.1441 15.9735 40.9284L12.8423 56.4075C12.5177 58.0119 13.7442 59.5113 15.3809 59.5113H24.884C21.1201 54.7137 22.5693 44.2066 23.4501 39.5803Z" fill="black"/>
<path opacity="0.05" d="M18.5079 28.9834C18.5079 32.111 21.0433 34.6464 24.1709 34.6464H29.2396C24.3624 30.1783 24.1419 16.4264 24.2076 9.09438C24.2104 8.77347 24.4716 8.51532 24.7925 8.51532H41.0668V6.96936H18.5079V28.9834Z" fill="black"/>
<path opacity="0.1" d="M22.553 34.6464H18.3012C17.5553 34.6464 16.9507 35.251 16.9507 35.9969V38.2297C16.9507 38.9756 17.5553 39.5803 18.3012 39.5803L23.4501 39.5391C22.4242 38.3976 22.2205 36.0674 22.553 34.6464Z" fill="black"/>
<path opacity="0.05" d="M26.1212 0C25.4246 0 24.8599 0.564661 24.8599 1.26135V2.87474H27.9205C27.5065 2.0443 27.4331 0.987203 27.5393 0H26.1212Z" fill="black"/>
</svg>
