<svg width="74" height="74" viewBox="0 0 74 74" fill="none" xmlns="http://www.w3.org/2000/svg">
<path d="M12.1249 24.8024V22.4617C12.1249 21.9674 11.7324 21.5749 11.2381 21.5749H8.6212C7.08014 21.5749 5.81531 22.8251 5.81531 24.3807C5.81531 25.9218 7.0656 27.1866 8.6212 27.1866H13.3898V24.8024H12.1249Z" fill="#6984C9"/>
<path d="M61.8751 24.8024V22.4617C61.8751 21.9674 62.2676 21.5749 62.7619 21.5749H65.3788C66.9199 21.5749 68.1847 22.8251 68.1847 24.3807C68.1847 25.9218 66.9344 27.1866 65.3788 27.1866H60.6102V24.8024H61.8751Z" fill="#6984C9"/>
<path d="M6.74573 45.3014V61.2935C6.74573 62.0204 7.3418 62.6165 8.06871 62.6165H14.3638C15.0907 62.6165 15.6868 62.0204 15.6868 61.2935V45.3014H6.74573Z" fill="#333842"/>
<path d="M58.2986 45.3014V61.2935C58.2986 62.0204 58.8947 62.6165 59.6216 62.6165H65.9167C66.6436 62.6165 67.2396 62.0204 67.2396 61.2935V45.3014H58.2986Z" fill="#333842"/>
<path d="M67.2978 35.5898C66.4692 33.2346 64.3757 32.5367 63.547 30.0361C62.7183 27.5356 56.4523 14.4656 53.2684 12.8083C50.0845 11.1509 37 11.4126 37 11.4126C37 11.4126 23.9446 11.1363 20.7462 12.8083C17.5478 14.4802 11.2963 27.521 10.4531 30.0216C9.62438 32.5222 7.53086 33.22 6.70218 35.5752C5.8735 37.9304 7.12379 55.5945 8.7957 56.8448C10.4676 58.0951 37 58.3713 37 58.3713C37 58.3713 63.547 58.0951 65.2043 56.8448C66.8762 55.5945 68.1265 37.945 67.2978 35.5898Z" fill="#8AAAFE"/>
<path d="M54.6786 21.5894L37 22.7234L19.3214 21.5894L13.8405 27.1866C13.8405 27.1866 22.2 38.6283 23.4794 41.8703C24.7587 45.1124 23.5666 45.8684 25.0059 46.7988H37H48.9941C50.4334 45.8538 49.2412 45.1124 50.5206 41.8703C51.8 38.6283 60.1595 27.1866 60.1595 27.1866L54.6786 21.5894Z" fill="#8AB8FE"/>
<path d="M48.1655 50.3898H25.8347C24.5262 50.3898 23.4795 51.4511 23.4795 52.745C23.4795 54.0534 24.5408 55.1002 25.8347 55.1002H48.1655C49.474 55.1002 50.5207 54.0389 50.5207 52.745C50.5207 51.4511 49.474 50.3898 48.1655 50.3898Z" fill="#333842"/>
<path d="M9.95878 51.989L10.8165 48.2526C11.0201 47.3513 11.8488 46.7407 12.7647 46.8134L19.0452 47.2786C20.3537 47.3804 21.1388 48.7906 20.5136 49.9536L18.8853 53.0212C18.6527 53.4574 18.1729 53.7045 17.6786 53.6609L10.5403 52.8322C10.1478 52.7886 9.87155 52.3961 9.95878 51.989Z" fill="#333842"/>
<path d="M64.0413 51.989L63.1836 48.2526C62.98 47.3513 62.1513 46.7407 61.2354 46.8134L54.9549 47.2786C53.6464 47.3804 52.8614 48.7906 53.4865 49.9536L55.1148 53.0212C55.3474 53.4574 55.8272 53.7045 56.3215 53.6609L63.4598 52.8322C63.8523 52.7886 64.1286 52.3961 64.0413 51.989Z" fill="#333842"/>
<path d="M35.7497 42.2919H25.7183C25.035 42.2919 24.468 41.7395 24.468 41.0416V36.3748C24.468 36.055 24.7297 35.8079 25.035 35.8079H35.7352C36.055 35.8079 36.3022 36.0695 36.3022 36.3748V41.7104C36.3313 42.0448 36.0696 42.2919 35.7497 42.2919Z" fill="#333842"/>
<path d="M38.2503 42.2919H48.2818C48.9651 42.2919 49.5321 41.7395 49.5321 41.0416V36.3748C49.5321 36.055 49.2704 35.8079 48.9651 35.8079H38.2649C37.945 35.8079 37.6979 36.0695 37.6979 36.3748V41.7104C37.6688 42.0448 37.9305 42.2919 38.2503 42.2919Z" fill="#333842"/>
<path d="M48.9651 43.4986H25.0932C24.5407 43.4986 24.1773 44.0947 24.4535 44.589L25.195 45.8974C25.3258 46.1301 25.5729 46.2754 25.8346 46.2754H48.2382C48.4998 46.2754 48.747 46.1301 48.8778 45.8974L49.6193 44.589C49.881 44.0947 49.5321 43.4986 48.9651 43.4986Z" fill="#333842"/>
<path d="M20.7316 40.1694H11.776C10.2349 40.1694 8.98462 38.9191 8.98462 37.378C8.98462 35.6043 10.6129 34.2959 12.343 34.6448L20.2518 36.3022C21.1823 36.4912 21.9237 37.1599 22.2436 38.0468C22.5925 39.0935 21.822 40.1694 20.7316 40.1694Z" fill="#FFFFFC"/>
<path d="M53.2682 40.1694H62.2238C63.7649 40.1694 65.0152 38.9191 65.0152 37.378C65.0152 35.6043 63.3869 34.2959 61.6568 34.6448L53.748 36.3022C52.8176 36.4912 52.0761 37.1599 51.7563 38.0468C51.4073 39.0935 52.1779 40.1694 53.2682 40.1694Z" fill="#FFFFFC"/>
<path d="M53.8644 14.9018C51.8727 13.666 37 13.8259 37 13.8259C37 13.8259 22.1418 13.666 20.1355 14.9018C18.1293 16.1375 13.8405 27.2012 13.8405 27.2012C17.9839 26.198 37 26.1253 37 26.1253C37 26.1253 56.0161 26.198 60.1595 27.2012C60.1595 27.1866 55.8562 16.123 53.8644 14.9018Z" fill="#333842"/>
</svg>
