<svg width="55" height="55" viewBox="0 0 55 55" fill="none" xmlns="http://www.w3.org/2000/svg">
<path d="M55 24.6552V26.5517C55 28.1229 53.7263 29.3965 52.1552 29.3965H23.7069C22.1357 29.3965 20.8621 28.1229 20.8621 26.5517V24.6552H55Z" fill="#3F5C6C"/>
<path d="M55 3.7931V24.6552H20.8621V3.7931C20.8621 2.22195 22.1357 0.948273 23.7069 0.948273H52.1552C53.7263 0.948273 55 2.22195 55 3.7931Z" fill="#6A93FF"/>
<path d="M45.5173 36.0345C41.7242 36.0345 41.7242 31.2931 41.7242 31.2931V29.3965H34.138V31.2931C34.138 31.2931 34.138 36.0345 30.3448 36.0345H45.5173Z" fill="#2C3E50"/>
<path d="M24.6551 9.48275C24.2717 9.48267 23.926 9.25163 23.7792 8.89734C23.6325 8.54304 23.7136 8.13524 23.9847 7.86404L27.7778 4.07094C28.0159 3.82443 28.3685 3.72556 28.7 3.81235C29.0316 3.89913 29.2905 4.15805 29.3773 4.4896C29.464 4.82114 29.3652 5.17371 29.1187 5.4118L25.3256 9.2049C25.1478 9.38275 24.9066 9.4827 24.6551 9.48275Z" fill="#84B5CB"/>
<path d="M24.6551 15.1724C24.2717 15.1723 23.926 14.9413 23.7792 14.587C23.6325 14.2327 23.7136 13.8249 23.9847 13.5537L33.4675 4.07094C33.7055 3.82443 34.0581 3.72556 34.3897 3.81235C34.7212 3.89913 34.9801 4.15805 35.0669 4.4896C35.1537 4.82114 35.0548 5.17371 34.8083 5.4118L25.3256 14.8946C25.1478 15.0724 24.9066 15.1724 24.6551 15.1724Z" fill="#84B5CB"/>
<path d="M46.4655 35.0862H29.3965C28.8728 35.0862 28.4482 35.5108 28.4482 36.0345C28.4482 36.5582 28.8728 36.9828 29.3965 36.9828H46.4655C46.9892 36.9828 47.4138 36.5582 47.4138 36.0345C47.4138 35.5108 46.9892 35.0862 46.4655 35.0862Z" fill="#3F5C6C"/>
<path d="M55 3.7931V24.6552H31.7198C34.1388 22.5346 36.0728 19.9182 37.3905 16.9836C39.619 11.921 39.9225 6.21887 38.244 0.948273H52.1552C52.9097 0.948273 53.6333 1.24799 54.1668 1.7815C54.7003 2.31501 55 3.03861 55 3.7931Z" fill="#5886FD"/>
<path d="M34.1379 41.7241V43.6207C34.1379 45.1918 32.8643 46.4655 31.2931 46.4655H2.84483C1.27367 46.4655 0 45.1918 0 43.6207V41.7241H34.1379Z" fill="#3F5C6C"/>
<path d="M34.1379 20.8621V41.7241H0V20.8621C0 19.2909 1.27367 18.0172 2.84483 18.0172H31.2931C32.8643 18.0172 34.1379 19.2909 34.1379 20.8621Z" fill="#8FAEFF"/>
<path d="M24.6552 53.1035C20.8621 53.1035 20.8621 48.3621 20.8621 48.3621V46.4655H13.2759V48.3621C13.2759 48.3621 13.2759 53.1035 9.48279 53.1035H24.6552Z" fill="#2C3E50"/>
<path d="M3.79307 26.5517C3.40959 26.5516 3.06391 26.3206 2.91717 25.9663C2.77043 25.612 2.85152 25.2042 3.12264 24.933L6.91574 21.1399C7.28783 20.7805 7.87927 20.7857 8.24506 21.1515C8.61084 21.5172 8.61598 22.1087 8.25661 22.4808L4.4635 26.2739C4.28571 26.4517 4.04455 26.5517 3.79307 26.5517Z" fill="#B0D3F0"/>
<path d="M3.79307 32.2414C3.40959 32.2413 3.06391 32.0103 2.91717 31.656C2.77043 31.3017 2.85152 30.8939 3.12264 30.6227L12.6054 21.1399C12.9775 20.7805 13.5689 20.7857 13.9347 21.1515C14.3005 21.5172 14.3056 22.1087 13.9463 22.4808L4.4635 31.9635C4.28571 32.1414 4.04455 32.2413 3.79307 32.2414Z" fill="#B0D3F0"/>
<path d="M25.6034 52.1552H8.53446C8.01074 52.1552 7.58618 52.5797 7.58618 53.1034C7.58618 53.6272 8.01074 54.0517 8.53446 54.0517H25.6034C26.1271 54.0517 26.5517 53.6272 26.5517 53.1034C26.5517 52.5797 26.1271 52.1552 25.6034 52.1552Z" fill="#3F5C6C"/>
<path d="M34.138 20.8621V41.7241H10.8578C13.2767 39.6036 15.2107 36.9871 16.5285 34.0526C18.7569 28.9899 19.0604 23.2878 17.3819 18.0172H31.2931C32.8643 18.0172 34.138 19.2909 34.138 20.8621Z" fill="#779DFF"/>
</svg>
