<svg width="57" height="57" viewBox="0 0 57 57" fill="none" xmlns="http://www.w3.org/2000/svg">
<path d="M36.8496 5.00977C36.8496 7.18066 35.4471 9.05106 33.5098 9.71903V11.6895C33.5098 12.6249 32.7753 13.3594 31.8398 13.3594C30.9044 13.3594 30.1699 12.6249 30.1699 11.6895V8.34961C30.1699 7.41419 30.9044 6.67969 31.8398 6.67969C32.7753 6.67969 33.5098 5.94518 33.5098 5.00977C33.5098 4.07435 32.7753 3.33984 31.8398 3.33984C30.9044 3.33984 30.1699 4.07435 30.1699 5.00977C30.1699 5.94518 29.4354 6.67969 28.5 6.67969C27.5646 6.67969 26.8301 5.94518 26.8301 5.00977C26.8301 2.23743 29.0675 0 31.8398 0C34.6122 0 36.8496 2.23743 36.8496 5.00977Z" fill="#FDBF00"/>
<path d="M42.0264 16.7658C41.7259 17.3672 41.1249 17.7012 40.5235 17.7012C40.2564 17.7012 40.0225 17.6342 39.7889 17.5342L31.8399 13.5599L23.8912 17.5342C23.0893 17.9351 22.0878 17.6007 21.6533 16.7658C21.2528 15.9643 21.5864 14.9623 22.4213 14.5283L31.1054 10.1865C31.3389 10.0865 31.5728 10.0195 31.8399 10.0195C32.1069 10.0195 32.3408 10.0865 32.5744 10.1865L41.2584 14.5283C42.0934 14.9623 42.4269 15.9643 42.0264 16.7658Z" fill="#FDBF00"/>
<path d="M36.8496 5.00977C36.8496 7.18066 35.4471 9.05106 33.5098 9.71903V11.6895C33.5098 12.6249 32.7753 13.3594 31.8398 13.3594V6.67969C32.7753 6.67969 33.5098 5.94518 33.5098 5.00977C33.5098 4.07435 32.7753 3.33984 31.8398 3.33984V0C34.6122 0 36.8496 2.23743 36.8496 5.00977Z" fill="#FF9F00"/>
<path d="M42.0264 16.7658C41.7259 17.3672 41.1249 17.7012 40.5234 17.7012C40.2564 17.7012 40.0225 17.6342 39.7889 17.5342L31.8398 13.5599V10.0195C32.1073 10.0195 32.3408 10.0865 32.5743 10.1865L41.2584 14.5283C42.0933 14.9623 42.4269 15.9643 42.0264 16.7658Z" fill="#FF9F00"/>
<path d="M57 15.0293V28.5C57 29.435 56.2655 30.1699 55.3301 30.1699H50.3203V55.3301C50.3203 56.2651 49.5858 57 48.6504 57H33.5098L13.3594 36.9609V30.1699H8.34961C7.41419 30.1699 6.67969 29.435 6.67969 28.5V15.0293C6.67969 14.0939 7.41419 13.3594 8.34961 13.3594H21.8203C22.7222 13.3594 23.4902 14.0939 23.4902 14.9958C23.4567 19.6051 27.231 23.3789 31.8398 23.3789C36.4487 23.3789 40.2229 19.6051 40.1895 14.9958C40.1895 14.0939 40.9574 13.3594 41.8594 13.3594H55.3301C56.2655 13.3594 57 14.0939 57 15.0293Z" fill="#5886FD" fill-opacity="0.8"/>
<path d="M57 15.0293V28.5C57 29.435 56.2655 30.1699 55.3301 30.1699H50.3203V55.3301C50.3203 56.2651 49.5858 57 48.6504 57H33.5098L31.8398 55.3301V23.3789C36.4487 23.3789 40.2229 19.6051 40.1895 14.9958C40.1895 14.0939 40.9574 13.3594 41.8594 13.3594H55.3301C56.2655 13.3594 57 14.0939 57 15.0293Z" fill="#5886FD"/>
<path d="M36.8496 53.6602C36.8496 55.4971 35.3467 57 33.5098 57H3.33984C1.50293 57 0 55.4971 0 53.6602C0 51.8232 1.50293 50.3203 3.33984 50.3203L18.4805 46.9805L33.5098 50.3203C35.3467 50.3203 36.8496 51.8232 36.8496 53.6602Z" fill="#9C83FF"/>
<path d="M36.8496 53.6602C36.8496 55.4971 35.3467 57 33.5098 57H18.4805V46.9805L33.5098 50.3203C35.3467 50.3203 36.8496 51.8232 36.8496 53.6602Z" fill="#7958FD"/>
<path d="M36.8496 46.9805C36.8496 48.8174 35.3467 50.3203 33.5098 50.3203H3.33984C1.50293 50.3203 0 48.8174 0 46.9805C0 45.1436 1.50293 43.6406 3.33984 43.6406L18.4805 40.3008L33.5098 43.6406C35.3467 43.6406 36.8496 45.1436 36.8496 46.9805Z" fill="#8162FF"/>
<path d="M36.8496 46.9805C36.8496 48.8174 35.3467 50.3203 33.5098 50.3203H18.4805V40.3008L33.5098 43.6406C35.3467 43.6406 36.8496 45.1436 36.8496 46.9805Z" fill="#5D34FF"/>
<path d="M36.8496 40.3008C36.8496 42.1377 35.3467 43.6406 33.5098 43.6406H3.33984C1.50293 43.6406 0 42.1377 0 40.3008C0 38.4639 1.50293 36.9609 3.33984 36.9609H33.5098C35.3467 36.9609 36.8496 38.4639 36.8496 40.3008Z" fill="#9C83FF"/>
<path d="M36.8496 40.3008C36.8496 42.1377 35.3467 43.6406 33.5098 43.6406H18.4805V36.9609H33.5098C35.3467 36.9609 36.8496 38.4639 36.8496 40.3008Z" fill="#7958FD"/>
</svg>
