<svg width="88" height="50" viewBox="0 0 88 50" fill="none" xmlns="http://www.w3.org/2000/svg">
<path d="M16.5365 16.5365C13.2659 16.5365 10.0687 17.5063 7.3493 19.3233C4.6299 21.1404 2.51038 23.723 1.25877 26.7447C0.00716505 29.7663 -0.320312 33.0912 0.317751 36.299C0.955814 39.5068 2.53076 42.4533 4.84343 44.7659C7.15609 47.0786 10.1026 48.6536 13.3104 49.2916C16.5181 49.9297 19.8431 49.6022 22.8647 48.3506C25.8863 47.099 28.469 44.9795 30.286 42.2601C32.1031 39.5407 33.0729 36.3435 33.0729 33.0729C33.0729 30.9013 32.6452 28.751 31.8142 26.7447C30.9831 24.7384 29.7651 22.9154 28.2295 21.3799C26.694 19.8443 24.871 18.6263 22.8647 17.7952C20.8584 16.9642 18.7081 16.5365 16.5365 16.5365ZM16.5365 45.0994C14.1578 45.0994 11.8326 44.3941 9.85489 43.0726C7.87714 41.7511 6.33567 39.8728 5.42542 37.6753C4.51516 35.4777 4.27699 33.0596 4.74104 30.7267C5.20508 28.3937 6.3505 26.2508 8.03244 24.5689C9.71437 22.8869 11.8573 21.7415 14.1902 21.2775C16.5231 20.8134 18.9413 21.0516 21.1388 21.9619C23.3364 22.8721 25.2147 24.4136 26.5362 26.3913C27.8576 28.3691 28.563 30.6943 28.563 33.0729C28.563 36.2625 27.2959 39.3215 25.0405 41.5769C22.7851 43.8323 19.7261 45.0994 16.5365 45.0994Z" fill="#616161"/>
<path d="M70.6558 16.5365C67.3852 16.5365 64.1881 17.5063 61.4687 19.3233C58.7493 21.1404 56.6298 23.723 55.3782 26.7447C54.1266 29.7663 53.7991 33.0912 54.4371 36.299C55.0752 39.5068 56.6501 42.4533 58.9628 44.7659C61.2755 47.0786 64.222 48.6536 67.4297 49.2916C70.6375 49.9297 73.9624 49.6022 76.9841 48.3506C80.0057 47.099 82.5884 44.9795 84.4054 42.2601C86.2225 39.5407 87.1923 36.3435 87.1923 33.0729C87.1923 28.6872 85.4501 24.4811 82.3489 21.3799C79.2477 18.2787 75.0416 16.5365 70.6558 16.5365ZM70.6558 45.0994C68.2772 45.0994 65.952 44.3941 63.9743 43.0726C61.9965 41.7511 60.4551 39.8728 59.5448 37.6753C58.6345 35.4777 58.3964 33.0596 58.8604 30.7267C59.3245 28.3937 60.4699 26.2508 62.1518 24.5689C63.8338 22.8869 65.9767 21.7415 68.3096 21.2775C70.6425 20.8134 73.0606 21.0516 75.2582 21.9619C77.4557 22.8721 79.334 24.4136 80.6555 26.3913C81.977 28.3691 82.6824 30.6943 82.6824 33.0729C82.6824 36.2625 81.4153 39.3215 79.1599 41.5769C76.9045 43.8323 73.8455 45.0994 70.6558 45.0994Z" fill="#616161"/>
<path d="M70.3281 31.8793L60.7475 4.50994H66.1459V1.50331H58.6293C58.3892 1.50331 58.1527 1.56079 57.9394 1.67095C57.7261 1.78111 57.5423 1.94075 57.4034 2.13651C57.2644 2.33226 57.1744 2.55845 57.1408 2.79614C57.1071 3.03383 57.131 3.27611 57.2102 3.50272L58.1603 6.22071C51.227 7.50605 40.4632 14.6483 36.6072 17.3272L31.4704 3.97025L28.6622 5.04963L34.8153 21.0464H31.5696C31.2281 21.0462 30.8968 21.1624 30.6301 21.3756L15.5969 33.4021C15.3536 33.5967 15.1767 33.8622 15.0908 34.1617C15.0048 34.4612 15.0141 34.78 15.1173 35.074C15.2205 35.368 15.4124 35.6227 15.6667 35.8029C15.9209 35.983 16.2249 36.0797 16.5365 36.0795H39.0862V35.8135C43.1001 34.4725 46.8734 27.9526 51.2796 19.6889C52.3819 17.3763 53.69 15.1675 55.1882 13.0894C56.4613 11.8988 58.046 11.094 59.7583 10.7682L67.7334 33.569C67.8093 33.7857 67.9339 33.9821 68.0976 34.1431C68.2612 34.3042 68.4596 34.4256 68.6774 34.4981L73.1874 36.0014L74.1375 33.1451L70.3281 31.8793ZM20.8224 33.0729L32.0973 24.053H35.9728L36.0796 24.3326V33.0729H20.8224ZM48.6338 18.2728C46.1112 22.9917 42.153 30.4 39.0862 32.4896V24.053C39.0865 23.8686 39.0529 23.6856 38.987 23.5133L37.7197 20.2181C42.5035 16.8097 47.5585 13.799 52.834 11.2162C51.2204 13.4357 49.8124 15.7976 48.6277 18.2728H48.6338Z" fill="#8AAAFE"/>
<path d="M37.5828 39.0862C36.6908 39.0862 35.8189 38.8217 35.0772 38.3261C34.3356 37.8306 33.7575 37.1262 33.4162 36.3021C33.0748 35.478 32.9855 34.5712 33.1595 33.6964C33.3336 32.8215 33.7631 32.0179 34.3938 31.3872C35.0245 30.7565 35.8281 30.327 36.703 30.1529C37.5778 29.9789 38.4846 30.0682 39.3087 30.4096C40.1328 30.7509 40.8371 31.329 41.3327 32.0706C41.8283 32.8123 42.0928 33.6842 42.0928 34.5762C42.0928 35.7723 41.6176 36.9195 40.7718 37.7652C39.9261 38.611 38.7789 39.0862 37.5828 39.0862ZM37.5828 33.0729C37.2855 33.0729 36.9948 33.1611 36.7476 33.3263C36.5004 33.4915 36.3077 33.7262 36.1939 34.0009C36.0802 34.2756 36.0504 34.5779 36.1084 34.8695C36.1664 35.1611 36.3096 35.429 36.5198 35.6392C36.7301 35.8495 36.9979 35.9927 37.2895 36.0507C37.5812 36.1087 37.8834 36.0789 38.1581 35.9651C38.4328 35.8513 38.6676 35.6586 38.8328 35.4114C38.998 35.1642 39.0861 34.8736 39.0861 34.5762C39.0861 34.1775 38.9278 33.7952 38.6458 33.5132C38.3639 33.2313 37.9815 33.0729 37.5828 33.0729Z" fill="#C4C4C2"/>
<path d="M46.6027 46.6028H42.0928C41.7986 46.6027 41.511 46.5164 41.2654 46.3545C41.0198 46.1925 40.8271 45.9621 40.7112 45.6917L36.2013 35.1685L38.9644 33.9839L43.0835 43.5961H46.6027V46.6028Z" fill="#D1D1CF"/>
<path d="M31.4704 3.97026L28.6622 5.04964L29.5642 7.39481L32.6129 6.94081L31.4704 3.97026Z" fill="#648FFF"/>
<path d="M62.1471 4.50994H66.1459V1.50331H62.0463C61.7556 2.49026 61.7909 3.54466 62.1471 4.50994Z" fill="#5F8BFF"/>
<path d="M66.1458 6.01326C67.8063 6.01326 69.1524 4.66714 69.1524 3.00663C69.1524 1.34611 67.8063 0 66.1458 0C64.4853 0 63.1392 1.34611 63.1392 3.00663C63.1392 4.66714 64.4853 6.01326 66.1458 6.01326Z" fill="#616161"/>
<path d="M24.053 1.50331V2.27752C24.0526 2.94853 24.2394 3.60634 24.5924 4.17704C24.9453 4.74774 25.4504 5.2087 26.0509 5.50814C26.7077 5.83711 27.4493 5.95774 28.1766 5.8539L36.1998 4.70688C36.5835 4.65223 36.9346 4.46098 37.1887 4.16825C37.4428 3.87552 37.5827 3.50097 37.5828 3.11336C37.5824 2.68647 37.4127 2.27718 37.1108 1.97532C36.8089 1.67347 36.3997 1.50371 35.9728 1.50331H24.053Z" fill="#616161"/>
</svg>
