<svg width="94" height="90" viewBox="0 0 94 90" fill="none" xmlns="http://www.w3.org/2000/svg">
<path d="M92.3997 39.6853L84.4606 32.4514V8.46436C84.4606 6.93814 83.2233 5.70064 81.6969 5.70064H62.5865C61.0602 5.70064 59.8227 6.93795 59.8227 8.46436V10.0014L50.2348 1.26494C48.384 -0.421708 45.5931 -0.421525 43.7431 1.26476L1.57814 39.6855C0.0957857 41.0364 -0.394112 43.1179 0.33018 44.9881C1.05466 46.8583 2.81858 48.0666 4.82424 48.0666H11.5585V86.5611C11.5585 88.0873 12.7959 89.3248 14.3223 89.3248H37.4337C38.96 89.3248 40.1975 88.0875 40.1975 86.5611V63.1884H53.7804V86.5613C53.7804 88.0875 55.0177 89.325 56.5442 89.325H79.6547C81.1809 89.325 82.4184 88.0877 82.4182 86.5613V48.0668H89.154C91.1595 48.0668 92.9236 46.8583 93.6481 44.9883C94.3722 43.1179 93.8825 41.0364 92.3997 39.6853ZM79.6547 42.5393C78.1285 42.5393 76.891 43.7766 76.891 45.303V83.7976H59.3081V60.4247C59.3081 58.8985 58.0706 57.661 56.5443 57.661H37.4337C35.9075 57.661 34.67 58.8983 34.67 60.4247V83.7976H17.0858V45.303C17.0858 43.7768 15.8485 42.5393 14.3221 42.5393H6.65278L46.9892 5.78507L60.7254 18.3016C61.5345 19.0387 62.7025 19.2287 63.7034 18.7869C64.7045 18.3445 65.3504 17.353 65.3504 16.2587V11.2281H78.9335V33.672C78.9335 34.4497 79.261 35.191 79.8359 35.7149L87.3253 42.5393H79.6547Z" fill="#9A97BD"/>
</svg>
