<svg width="57" height="57" viewBox="0 0 57 57" fill="none" xmlns="http://www.w3.org/2000/svg">
<g clip-path="url(#clip0)">
<path d="M49.1625 8.19375H42.6312V19.5938H49.1625V8.19375Z" fill="#8AAAFE"/>
<path d="M51.6562 2.37496H40.1375V8.55H51.6562V2.37496Z" fill="#8AAAFE"/>
<path d="M4.98755 30.7563V57H51.5375V30.7563C42.3938 21.6126 37.2875 16.5063 28.2625 7.48125C19.2375 16.625 14.1313 21.7312 4.98755 30.7563Z" fill="#CACACA"/>
<path d="M51.6563 30.7563C42.5126 21.6126 37.4063 16.5063 28.3813 7.48125C23.75 11.9937 20.1875 15.5562 16.625 19.1187C13.0625 22.6812 9.50001 26.2437 4.98755 30.7562V36.0999C14.1313 26.9562 19.2375 21.8499 28.2626 12.8249C37.4063 21.9686 42.5126 27.0749 51.5376 36.0999V36.8124V30.7562L51.6563 30.7563Z" fill="#7EA2FF"/>
<path d="M24.1062 57H10.0938V43.225C10.0938 39.3063 13.3 36.2188 17.1 36.2188C21.0187 36.2188 24.1062 39.4251 24.1062 43.225V57Z" fill="#415A6B"/>
<path d="M46.5501 36.2187H28.2626V52.25H46.5501V36.2187Z" fill="#344A5E"/>
<path d="M36.4562 38.1187H30.1625V50.35H36.4562V38.1187Z" fill="#8AD7F8"/>
<path d="M44.6499 38.1187H38.3562V50.35H44.6499V38.1187Z" fill="#8AD7F8"/>
<path d="M55.9312 25.8875L31.1125 1.06875C29.6875 -0.35625 27.1938 -0.35625 25.7688 1.06875L1.06875 25.8875C-0.35625 27.3125 -0.35625 29.8062 1.06875 31.2312C2.49375 32.6562 4.9875 32.6562 6.4125 31.2312L28.5 9.14371L50.5875 31.2312C52.0125 32.6562 54.5062 32.6562 55.9312 31.2312C57.3563 29.6875 57.3563 27.3125 55.9312 25.8875Z" fill="#8AAAFE"/>
</g>
<defs>
<clipPath id="clip0">
<rect width="57" height="57" fill="white"/>
</clipPath>
</defs>
</svg>
