<svg width="35" height="31" viewBox="0 0 35 31" fill="none" xmlns="http://www.w3.org/2000/svg">
<path d="M31 0H3.32143C1.49464 0 0 1.49464 0 3.32143C0 5.14821 1.49464 6.64286 3.32143 6.64286H31C32.8268 6.64286 34.3214 5.14821 34.3214 3.32143C34.3214 1.49464 32.8268 0 31 0Z" fill="#FFFEFE"/>
<path d="M31 12.1786H3.32143C1.49464 12.1786 0 13.6732 0 15.5C0 17.3268 1.49464 18.8214 3.32143 18.8214H31C32.8268 18.8214 34.3214 17.3268 34.3214 15.5C34.3214 13.6732 32.8268 12.1786 31 12.1786Z" fill="#FFFEFE"/>
<path d="M31 24.3571H3.32143C1.49464 24.3571 0 25.8518 0 27.6786C0 29.5054 1.49464 31 3.32143 31H31C32.8268 31 34.3214 29.5054 34.3214 27.6786C34.3214 25.8518 32.8268 24.3571 31 24.3571Z" fill="#FFFEFE"/>
</svg>
