<svg width="635" height="457" viewBox="0 0 635 457" fill="none" xmlns="http://www.w3.org/2000/svg">
<g clip-path="url(#clip0)">
<path opacity="0.1" d="M328.425 74.6073C288.321 81.3852 248.274 78.4796 209.75 74.2532C171.226 70.0268 132.797 64.5078 92.6765 66.1714C66.8681 67.2392 38.1266 72.3536 20.1062 87.219C2.76016 101.517 0.0573847 120.811 0.0236703 138.228C-0.0212823 151.328 1.11377 164.884 10.3965 175.321C16.8472 182.56 26.7761 187.747 34.2551 194.43C60.277 217.641 52.3653 254.189 35.289 285.263C27.2762 299.842 17.4765 314.179 12.0204 329.101C6.56427 344.022 5.83941 360.012 15.6054 372.179C25.2589 384.178 43.976 391.001 63.5192 394.525C103.156 401.685 147.316 397.24 190.044 391.215C284.602 377.878 378.187 357.016 471.571 336.205C506.122 328.499 540.826 320.76 574.113 309.655C592.6 303.473 611.424 295.779 623.364 283.802C638.536 268.627 638.918 247.872 624.297 235.468C599.764 214.674 544.236 219.288 525.261 195.514C514.821 182.425 519.366 164.648 527.677 148.946C545.495 115.269 579.934 81.9978 575.473 48.4228C572.394 25.38 548.9 6.31074 517.411 1.34249C484.405 -3.8618 442.014 6.00725 423.011 29.1961C403.473 53.0876 363.836 68.6274 328.425 74.6073Z" fill="#6C63FF"/>
<path d="M282.51 59.0288H48.9253V169.067H282.51V59.0288Z" fill="#565661"/>
<path d="M277.947 67.1219H54.3083V160.973H277.947V67.1219Z" fill="#DFE6F5"/>
<path d="M70.053 112.426C66.8368 112.817 63.6914 113.657 60.7085 114.922L66.8894 109.043C67.336 108.565 67.8751 108.182 68.474 107.919C69.4742 107.537 70.6261 107.829 71.6488 107.492C73.2952 106.93 74.1156 104.951 75.7563 104.384C76.8802 104.002 78.1051 104.384 79.2851 104.299C81.6395 104.142 83.505 102.22 84.7019 100.18C85.8988 98.1397 86.7023 95.8523 88.2363 94.0539C90.4109 91.4967 93.7823 90.2602 96.2098 87.9335C97.2886 86.8994 98.1596 85.6854 99.1935 84.6007C101.233 82.5555 103.817 81.1393 106.638 80.5206C109.459 79.9019 112.399 80.1067 115.107 81.1106C115.839 81.4808 116.641 81.6933 117.461 81.7344C118.107 81.6567 118.732 81.4523 119.299 81.133L126.907 77.4855C131.167 78.8521 135.185 80.8815 138.814 83.4991C139.377 83.9959 140.064 84.3318 140.803 84.4714C142.837 84.6344 143.702 82.021 145 80.4474C146.776 78.2892 150.091 77.952 152.704 78.9468C155.317 79.9416 157.357 81.9986 159.211 84.0612C160.059 85.011 160.953 86.017 162.166 86.3935C163.173 86.6306 164.224 86.6054 165.218 86.3205C171.09 84.9845 176.252 81.5029 179.692 76.5582C180.215 75.7939 180.861 74.9059 181.788 74.9171C182.236 74.9596 182.666 75.1164 183.036 75.3723C186.321 77.2801 189.377 79.558 192.144 82.1615C194.246 84.1398 196.212 86.3261 198.735 87.7311C201.258 89.1362 204.551 89.597 206.962 88.0178C206.568 89.5858 208.085 91.092 209.664 91.4236C211.243 91.7552 212.879 91.3 214.486 91.092C216.705 90.8165 218.958 91.0022 221.102 91.6376C223.247 92.273 225.237 93.3443 226.949 94.7845C230.551 95.1827 233.986 96.514 236.916 98.647C239.846 100.78 242.168 103.641 243.654 106.947C244.845 109.695 246.424 113.376 249.386 112.921C250.38 112.769 251.335 112.106 252.313 112.359C252.971 112.599 253.553 113.01 253.999 113.55C256.539 116.023 260.006 117.22 263.203 118.738C266.4 120.255 269.637 122.425 270.761 125.78C267.99 126.168 265.254 125.049 262.495 124.583C259.736 124.116 256.37 124.611 255.05 127.084C254.521 128.084 254.347 129.36 253.42 130.006C252.786 130.362 252.061 130.524 251.335 130.473C245.038 130.553 238.816 129.09 233.214 126.213C229.415 131.739 223.791 135.748 217.329 137.537C217.149 135.098 214.609 133.322 212.159 133.288C209.709 133.255 207.428 134.559 205.54 136.098C203.701 137.619 202.104 139.41 200.803 141.41C199.719 143.096 198.82 144.911 197.347 146.243C195.875 147.575 193.571 148.272 191.88 147.226C190.942 146.664 190.34 145.625 189.419 145.006C187.323 143.607 184.12 144.63 182.277 142.905C180.945 141.657 180.923 139.454 179.647 138.15C178.035 136.503 175.152 137.054 173.348 138.476C171.545 139.898 170.342 141.966 168.685 143.562C164.386 147.704 157.806 148.058 151.827 148.171C151.827 146.839 152.659 145.681 153.243 144.489C154.901 141.117 154.446 137.043 152.923 133.62C151.4 130.197 148.928 127.337 146.506 124.527C143.775 127.438 145.028 132.513 142.573 135.677C141.578 136.964 140.072 137.779 139.033 139.049C137.735 140.612 136.723 143.062 134.7 142.91C133.711 142.837 132.914 142.095 132.245 141.365C129.666 138.555 127.289 135.003 123.541 134.272C122.074 133.985 120.557 134.182 119.046 134.053C116.625 133.764 114.382 132.637 112.705 130.867C111.028 129.098 110.023 126.797 109.864 124.364C106.695 125.223 103.301 125.96 100.132 126.82C99.2497 127.061 98.2888 127.303 97.4347 126.971C96.3109 126.527 95.749 125.257 94.8219 124.476C93.4564 123.352 91.4504 123.397 89.731 123.768C88.0115 124.139 86.264 124.768 84.4996 124.571C84.135 122.963 84.0438 121.304 84.2299 119.665L77.9365 119.103C77.1072 119.078 76.2875 118.918 75.5091 118.631C74.9212 118.358 74.3791 117.996 73.902 117.557C72.3516 116.065 71.0519 114.332 70.053 112.426Z" fill="#6C63FF"/>
<path d="M85.556 108.419C86.3314 107.615 86.9945 106.682 87.9216 106.064C88.7423 105.578 89.6224 105.2 90.5401 104.94C97.283 102.563 102.548 97.3698 107.931 92.6713C112.674 88.5292 117.658 84.6738 122.636 80.8239L124.53 82.2065L119.984 84.0612C119.546 84.241 119.04 84.5108 119.018 84.9829C119.038 85.2835 119.165 85.5668 119.377 85.7809C120.546 87.2871 121.861 88.8945 123.721 89.316C124.609 89.5184 125.682 89.4903 126.232 90.2153C126.452 90.5744 126.604 90.9705 126.682 91.3843C127.401 93.8347 129.621 95.5151 131.801 96.8471C136.108 99.4684 140.777 101.442 145.658 102.703C141.968 102.591 138.324 101.854 134.88 100.523C133.852 100.147 132.867 99.6633 131.941 99.0783C129.98 97.7969 128.508 95.8917 126.603 94.5316C124.698 93.1715 121.979 92.4465 120.063 93.7897C119.54 94.1606 119.034 94.6889 118.377 94.6552C117.72 94.6215 117.253 93.992 116.691 93.6042C115.258 92.5814 113.258 93.2614 111.724 94.1269C107.136 96.7395 103.464 100.701 101.205 105.474C108.064 105.931 114.866 103.964 120.422 99.9157C123.739 104.559 128.556 107.916 134.06 109.419C133.251 110.403 131.919 110.723 130.733 111.184C129.117 111.826 127.657 112.805 126.45 114.058C125.243 115.31 124.319 116.806 123.738 118.445C122.82 117.204 122.16 115.792 121.793 114.292C119.97 115.315 118.207 116.441 116.511 117.664C118.124 116.625 119.45 115.197 120.366 113.511C117.45 112.801 114.378 113.131 111.679 114.444C109.712 115.411 107.892 116.917 105.7 117.035C105.844 115.857 105.568 114.665 104.922 113.67C104.276 112.674 103.3 111.938 102.166 111.589C100.621 111.156 98.6259 111.336 97.7943 109.959C97.6046 109.564 97.4376 109.159 97.2942 108.745C96.6537 107.312 94.9567 106.592 93.389 106.637C91.8213 106.682 90.3434 107.323 88.8937 107.958C86.8259 108.869 84.7749 109.869 82.6734 110.69C83.623 109.88 84.685 109.296 85.556 108.419Z" fill="white"/>
<path d="M121.681 128.129C124.472 128.455 127.299 128.006 129.851 126.831C131.245 126.184 132.576 125.319 134.088 125.06C135.599 124.802 137.426 125.403 137.926 126.859C139.741 125.555 140.072 122.964 141.528 121.267C143.668 118.766 147.821 118.923 150.518 120.817C153.215 122.711 154.721 125.875 155.845 128.944C156.693 131.282 157.452 133.783 159.216 135.52C160.981 137.256 164.223 137.818 165.869 135.952C164.774 134.489 164.111 132.749 163.954 130.928C163.797 129.108 164.153 127.279 164.982 125.651C165.364 124.926 165.852 124.195 165.824 123.402C165.763 121.638 163.577 120.941 162.172 119.862C159.132 117.535 159.531 112.679 157.07 109.745C155.766 108.189 153.558 106.817 153.934 104.822C161.419 106.308 168.515 109.328 174.776 113.691C175.788 114.472 176.885 115.138 178.046 115.675C179.597 116.299 181.311 116.372 182.89 116.911C188.143 118.698 191.183 125.274 196.712 125.729C199.466 125.954 202.045 124.538 204.618 123.52C215.559 119.199 227.904 121.924 239.215 125.156C235.282 122.992 229.724 123.313 227.23 119.581C226.375 118.305 225.999 116.664 224.813 115.686C222.487 113.764 219.088 115.613 216.081 115.9C214.649 116.018 213.211 115.759 211.909 115.148C210.608 114.538 209.489 113.598 208.664 112.421C207.855 111.235 207.344 109.818 206.282 108.863C204.725 107.469 202.427 107.413 200.337 107.436L190.531 107.525C188.885 107.525 187.031 107.464 185.929 106.238C185.569 105.707 185.171 105.202 184.738 104.727C184.092 104.165 183.193 104.092 182.356 103.973C179.621 103.592 176.979 102.718 174.556 101.394C174.079 101.192 173.683 100.836 173.433 100.382C172.803 98.8928 175.085 98.0667 176.36 97.0719C178.439 95.442 177.978 92.2329 177.315 89.6813C179.039 89.3115 180.626 88.4666 181.895 87.2422C179.535 85.0672 176.945 82.0997 177.962 79.0592C178.186 78.3904 178.31 77.3057 177.608 77.3226C176.663 79.3749 175.088 81.0722 173.112 82.1672C172.482 82.4249 171.925 82.8365 171.494 83.3643C170.78 84.4883 171.522 86.2024 170.634 87.2028C170.313 87.5212 169.917 87.7532 169.482 87.8773C166.521 88.9395 162.874 89.1587 161.093 91.7552C160.492 92.8119 160.04 93.9467 159.75 95.1273C158.726 98.0699 156.98 100.708 154.672 102.801C152.364 104.893 149.568 106.373 146.54 107.104C145.517 107.34 144.399 107.525 143.68 108.29C143.118 108.852 142.927 109.655 142.46 110.285C141.528 111.55 139.836 111.892 138.37 112.454C134.172 114.056 131.593 117.72 129.25 121.345C128.261 122.874 127.536 123.335 125.912 124.049C124.922 124.424 124.012 124.985 123.232 125.701C123.08 125.87 121.552 128.112 121.681 128.129Z" fill="white"/>
<path d="M195.87 96.819C194.013 97.787 192.052 98.5412 190.026 99.0671C190.991 99.3428 191.916 99.7413 192.779 100.253C192.489 101.418 191.806 102.448 190.846 103.17C193.094 103.243 195.223 104.069 197.387 104.659C200.977 105.631 204.692 105.952 208.411 106.272L203.354 102.58C202.612 102.018 201.815 101.422 201.629 100.523C201.555 99.6913 201.77 98.8599 202.236 98.1678C203.517 95.7455 205.074 93.5312 206.546 91.2381C204.737 91.862 202.36 91.3449 200.73 92.1036C199.713 92.5757 199.533 93.5761 198.926 94.4135C198.108 95.4414 197.061 96.2649 195.87 96.819Z" fill="white"/>
<path d="M226.471 102.473C225.942 103.773 225.181 104.965 224.223 105.991C225.124 106.814 226.249 107.352 227.454 107.537C228.072 107.588 228.685 107.676 229.292 107.801C229.996 108.04 230.655 108.396 231.242 108.852C235.175 111.578 239.406 114.719 240.502 119.378C241.213 118.98 242.046 118.859 242.84 119.039C243.635 119.218 244.335 119.686 244.806 120.351C245.289 121.087 245.537 122.087 246.34 122.447C247.144 122.807 248.026 122.335 248.661 121.789C249.296 121.244 249.925 120.576 250.751 120.384C251.266 120.3 251.793 120.317 252.302 120.435L259.781 121.643C258.744 120.596 257.487 119.794 256.1 119.296C254.714 118.797 253.234 118.614 251.768 118.76C249.959 118.957 248.071 119.643 246.391 118.957C244.711 118.271 243.845 116.462 242.519 115.236C240.833 113.674 238.4 113.078 236.72 111.499C235.321 110.173 234.579 108.295 233.309 106.845C231.933 105.266 229.972 104.243 228.764 102.535C228.275 101.843 227.887 101.029 227.168 100.59C225.904 99.8258 223.308 99.8932 221.869 99.7583C222.212 101.45 224.853 102.782 226.471 102.473Z" fill="white"/>
<path d="M96.53 87.9953C97.7999 88.0824 99.0733 88.1049 100.345 88.0627C100.469 88.0676 100.591 88.0385 100.699 87.9784C100.81 87.8729 100.88 87.7315 100.896 87.5794L101.351 85.5674C101.371 85.3891 101.45 85.2227 101.576 85.0953C101.693 85.0303 101.824 84.9962 101.958 84.9962C102.092 84.9962 102.223 85.0303 102.34 85.0953C103.654 85.5882 104.887 86.2738 105.998 87.1298C105.519 85.6798 105.092 84.2129 104.717 82.7292L108.162 82.1222C105.549 81.4984 104.228 81.8131 102.542 83.6621C101.553 84.7243 98.0472 88.0908 96.53 87.9953Z" fill="white"/>
<path d="M165.718 49.733C167.446 49.733 168.847 48.3315 168.847 46.6026C168.847 44.8737 167.446 43.4722 165.718 43.4722C163.989 43.4722 162.588 44.8737 162.588 46.6026C162.588 48.3315 163.989 49.733 165.718 49.733Z" fill="#565661"/>
<path d="M145.658 62.0581L165.718 46.6026L185.986 62.0581" stroke="#565661" stroke-miterlimit="10"/>
<path d="M168.926 103.518L169.173 103.676L169.69 103.619L168.926 103.518Z" fill="url(#paint0_linear)"/>
<path d="M169.718 103.619L174.051 104.181C172.665 103.679 171.186 103.488 169.718 103.619Z" fill="url(#paint1_linear)"/>
<path d="M340.195 259.226H180.934V296.111H340.195V259.226Z" fill="#565661"/>
<path opacity="0.1" d="M340.195 259.226H180.934V296.111H340.195V259.226Z" fill="black"/>
<path d="M199.988 297.325L201.107 395.796L185.789 434.474L184.603 297.325H199.988Z" fill="#BCBEC9"/>
<path d="M182.614 266.307L337.672 267.24V294.711H182.614V266.307Z" fill="#565661"/>
<path d="M324.406 297.325L337.672 299.196V432.979L324.406 392.059V297.325Z" fill="#BCBEC9"/>
<path d="M417.441 260.704H342.713V419.53H417.441V260.704Z" fill="#EFEFF0"/>
<path d="M411.462 265.116H348.691V387.203H411.462V265.116Z" fill="#565661"/>
<path opacity="0.1" d="M411.462 265.116H348.691V387.203H411.462V265.116Z" fill="black"/>
<path d="M411.462 267.617H348.691V294.711H411.462V267.617Z" fill="#565661"/>
<path d="M411.462 297.325H348.691V354.876H411.462V297.325Z" fill="#565661"/>
<path d="M411.462 358.428H348.691V415.978H411.462V358.428Z" fill="#565661"/>
<path d="M351.31 429.871C353.544 429.871 355.356 427.556 355.356 424.701C355.356 421.845 353.544 419.53 351.31 419.53C349.076 419.53 347.264 421.845 347.264 424.701C347.264 427.556 349.076 429.871 351.31 429.871Z" fill="#565661"/>
<path d="M407.416 430.119C409.651 430.119 411.462 427.804 411.462 424.948C411.462 422.092 409.651 419.777 407.416 419.777C405.182 419.777 403.371 422.092 403.371 424.948C403.371 427.804 405.182 430.119 407.416 430.119Z" fill="#565661"/>
<path d="M180.372 434.474H185.789L184.3 262.081H176.074L180.372 434.474Z" fill="#EFEFF0"/>
<path d="M337.672 260.704V432.979H342.713V262.081L337.672 260.704Z" fill="#EFEFF0"/>
<path d="M184.564 293.025V299.196H337.672V294.711L184.564 293.025Z" fill="#EFEFF0"/>
<path d="M194.942 249.12H389.048L417.255 258.461V263.879L175.141 262.013V256.5L194.942 249.12Z" fill="#EFEFF0"/>
<path d="M175.141 256.5L417.255 258.461V263.879L175.141 262.013V256.5Z" fill="#BCBEC9"/>
<path d="M239.215 306.699L238.091 306.531C238.091 306.48 238.091 306.435 238.091 306.39C238.058 306.126 238.018 305.868 237.979 305.603C238.44 305.969 238.878 306.334 239.283 306.699H239.215Z" fill="url(#paint2_linear)"/>
<path d="M214.795 393.481C215.525 393.312 216.267 393.172 217.009 393.07C222.103 392.345 227.298 393.11 231.967 395.273C231.495 398.747 231.028 402.338 232.028 405.693C232.725 408.054 234.124 410.189 234.422 412.651C235.172 412.78 235.872 413.116 236.443 413.62C237.013 414.124 237.432 414.777 237.653 415.506C237.869 416.151 237.977 416.827 237.973 417.507C237.967 418.348 237.861 419.186 237.659 420.002C237.59 420.655 237.27 421.254 236.767 421.674C236.263 422.094 235.615 422.301 234.961 422.25C230.612 422.745 226.347 421.031 222.302 419.35L214.435 416.079C213.513 415.697 212.586 415.309 211.704 414.837C210.031 413.933 208.545 412.718 207.327 411.257C207.076 411 206.899 410.68 206.816 410.33C206.669 409.341 207.827 408.751 208.563 408.082C208.779 407.878 208.967 407.648 209.125 407.396C209.996 406.081 210.08 404.266 210.603 402.715C211.839 399.033 215.66 396.662 217.009 393.07C217.082 392.874 217.149 392.677 217.205 392.475" fill="#A26565"/>
<path opacity="0.1" d="M237.973 417.507C237.967 418.348 237.861 419.186 237.659 420.002C237.59 420.655 237.27 421.254 236.767 421.674C236.263 422.094 235.615 422.301 234.961 422.25C230.612 422.745 226.347 421.031 222.302 419.35L214.435 416.079C213.513 415.697 212.586 415.309 211.704 414.837C210.031 413.933 208.545 412.718 207.327 411.257C207.076 411 206.899 410.68 206.816 410.33C206.669 409.341 207.827 408.751 208.563 408.082C208.779 407.878 208.967 407.648 209.125 407.396C211.294 407.863 213.985 409.228 215.643 409.757C217.303 410.209 218.898 410.876 220.386 411.741C222.453 413.067 223.942 415.113 225.696 416.799C227.449 418.485 229.713 420.019 232.158 419.811C233.45 419.616 234.696 419.186 235.832 418.541L237.973 417.507Z" fill="black"/>
<path d="M228.764 337.638C228.91 338.148 228.897 338.691 228.726 339.193C228.555 339.695 228.235 340.133 227.808 340.449C227.072 340.904 226.123 340.842 225.392 341.337C224.488 341.972 224.358 343.231 224.201 344.321C223.639 348.07 221.779 351.47 220.189 354.915C218.599 358.36 217.256 362.12 217.84 365.863C218.239 368.403 219.487 371.112 218.318 373.4C218.031 373.962 217.604 374.462 217.278 375.007C215.677 377.682 216.587 381.071 216.525 384.185C216.549 384.531 216.473 384.876 216.306 385.18C216.061 385.467 215.758 385.7 215.418 385.865C214.848 386.285 214.379 386.828 214.048 387.453C213.716 388.079 213.529 388.771 213.502 389.479C213.455 390.894 213.625 392.308 214.008 393.672C214.07 394.222 214.313 394.736 214.699 395.133C215.146 395.429 215.675 395.578 216.211 395.56C219.741 395.846 223.204 396.688 226.471 398.055C228.601 398.943 230.669 400.056 232.933 400.483C233.152 400.551 233.383 400.574 233.611 400.55C233.839 400.526 234.059 400.455 234.259 400.343C234.544 400.086 234.74 399.746 234.821 399.371C235.692 396.504 236.574 393.548 236.276 390.569C236.147 389.288 235.804 388.035 235.714 386.753C235.321 381.695 238.743 377.132 239.828 372.141C240.316 369.893 240.316 367.566 240.665 365.295C241.609 359.074 245.036 353.493 246.357 347.339C246.541 346.192 246.827 345.063 247.211 343.967C248.194 341.584 250.47 339.65 250.521 337.071C250.552 336.503 250.402 335.941 250.094 335.463C249.564 334.882 248.86 334.488 248.088 334.339C245.02 333.501 241.897 332.878 238.743 332.473C237.304 332.191 235.836 332.089 234.371 332.17C232.47 332.394 230.643 333.039 229.022 334.058C226.898 335.385 228.292 335.705 228.764 337.638Z" fill="#454B69"/>
<path opacity="0.05" d="M228.764 337.638C228.91 338.148 228.897 338.691 228.726 339.193C228.555 339.695 228.235 340.133 227.808 340.449C227.072 340.904 226.123 340.842 225.392 341.337C224.488 341.972 224.358 343.231 224.201 344.321C223.639 348.07 221.779 351.47 220.189 354.915C218.599 358.36 217.256 362.12 217.84 365.863C218.239 368.403 219.487 371.112 218.318 373.4C218.031 373.962 217.604 374.462 217.278 375.007C215.677 377.682 216.587 381.071 216.525 384.185C216.549 384.531 216.473 384.876 216.306 385.18C216.061 385.467 215.758 385.7 215.418 385.865C214.848 386.285 214.379 386.828 214.048 387.453C213.716 388.079 213.529 388.771 213.502 389.479C213.455 390.894 213.625 392.308 214.008 393.672C214.07 394.222 214.313 394.736 214.699 395.133C215.146 395.429 215.675 395.578 216.211 395.56C219.741 395.846 223.204 396.688 226.471 398.055C228.601 398.943 230.669 400.056 232.933 400.483C233.152 400.551 233.383 400.574 233.611 400.55C233.839 400.526 234.059 400.455 234.259 400.343C234.544 400.086 234.74 399.746 234.821 399.371C235.692 396.504 236.574 393.548 236.276 390.569C236.147 389.288 235.804 388.035 235.714 386.753C235.321 381.695 238.743 377.132 239.828 372.141C240.316 369.893 240.316 367.566 240.665 365.295C241.609 359.074 245.036 353.493 246.357 347.339C246.541 346.192 246.827 345.063 247.211 343.967C248.194 341.584 250.47 339.65 250.521 337.071C250.552 336.503 250.402 335.941 250.094 335.463C249.564 334.882 248.86 334.488 248.088 334.339C245.02 333.501 241.897 332.878 238.743 332.473C237.304 332.191 235.836 332.089 234.371 332.17C232.47 332.394 230.643 333.039 229.022 334.058C226.898 335.385 228.292 335.705 228.764 337.638Z" fill="black"/>
<path d="M217.767 422.34H212.974L209.839 357.91L209.619 354.246L213.693 352.813L213.969 356.708L217.767 422.34Z" fill="#565661"/>
<path opacity="0.1" d="M213.969 356.708L209.839 357.91L209.619 354.246L213.693 352.813L213.969 356.708Z" fill="black"/>
<path d="M277.908 435.969L270.002 436.925L233.579 354.246L223.757 353.527L206.507 358.562L203.152 457H195.246L198.359 354.965L179.428 355.449L145.646 439.561H138.46L173.989 341.258L175.36 337.47L228.309 335.654L241.508 343.056L241.676 343.483L277.908 435.969Z" fill="#565661"/>
<path opacity="0.1" d="M241.676 343.483C230.298 346.912 218.486 350.655 218.486 350.655C218.486 350.655 207.715 354.415 203.152 350.655C202.577 350.206 201.934 349.851 201.247 349.604C201.839 350.027 202.478 350.379 203.152 350.655L173.989 341.252L175.354 337.47L228.308 335.654L241.508 343.056L241.676 343.483Z" fill="black"/>
<path d="M187.817 327.168L209.378 322.357C209.378 322.357 260.894 331.945 264.726 335.778C264.726 335.778 223.515 344.163 218.964 347.019C214.413 349.874 187.334 353.049 187.817 327.168Z" fill="white"/>
<path d="M178.546 273.276C176.86 278.621 172.258 283.437 166.656 283.668C166.248 283.715 165.836 283.641 165.47 283.454C164.768 283.016 164.751 281.987 165.038 281.206C165.324 280.425 165.824 279.722 165.903 278.902C165.92 278.734 165.908 278.565 165.869 278.402C165.723 277.733 165.178 277.137 164.538 277.278C164.974 276.928 165.264 276.429 165.353 275.878C165.441 275.326 165.321 274.761 165.015 274.293C164.761 274.006 164.532 273.698 164.33 273.372C163.863 272.416 164.588 271.343 164.892 270.32C165.515 268.072 163.931 265.824 163.802 263.48C163.689 261.384 164.751 259.411 165.015 257.332C165.437 253.959 163.762 250.728 163.566 247.361C163.431 245.012 164.009 242.685 164.656 240.42C165.218 238.397 165.853 236.351 165.892 234.238C165.892 232.704 165.628 231.186 165.555 229.658C165.438 228.26 165.692 226.857 166.291 225.589C166.68 224.843 167.342 224.277 168.139 224.009C169.983 223.391 171.191 224.352 171.46 226.1C171.91 229.073 171.651 232.108 172.241 235.092C172.787 237.883 173.613 240.612 174.708 243.236C175.703 245.608 176.911 247.901 177.675 250.357C178.25 252.381 178.662 254.449 178.906 256.539C179.659 262.154 180.249 267.931 178.546 273.276Z" fill="#6C63FF"/>
<path d="M306.526 409.307C305.815 410.309 304.9 411.15 303.842 411.774C302.784 412.397 301.605 412.79 300.384 412.926C297.946 413.23 295.411 412.617 293.046 413.286C292.679 413.346 292.334 413.497 292.04 413.723C291.745 413.95 291.512 414.246 291.36 414.584C291.302 415.041 291.266 415.501 291.253 415.961C290.978 417.462 289.006 417.799 287.472 417.788L281.145 417.749C279.83 417.749 278.374 417.676 277.43 416.765C276.982 416.268 276.728 415.625 276.718 414.955C276.708 414.285 276.941 413.634 277.374 413.123C277.687 413.016 277.945 412.789 278.09 412.491C278.236 412.194 278.257 411.851 278.15 411.538C278.042 411.225 277.815 410.968 277.518 410.822C277.221 410.677 276.878 410.655 276.565 410.763C276.45 409.936 276.49 409.096 276.683 408.284C276.683 405.935 277.245 402.001 278.897 400.163C280.925 397.876 284.443 394.919 287.505 394.307C288.541 394.111 289.608 394.16 290.621 394.451C291.634 394.742 292.564 395.266 293.338 395.982C294.788 397.33 295.844 399.444 297.833 399.68C298.918 399.815 299.963 399.303 301.036 399.118C302.256 398.961 303.494 399.185 304.582 399.759C305.669 400.334 306.552 401.231 307.11 402.327C307.383 402.883 307.572 403.475 307.672 404.086C307.963 405.909 307.554 407.774 306.526 409.307Z" fill="#A26565"/>
<path opacity="0.1" d="M306.526 409.307C305.815 410.309 304.9 411.15 303.842 411.774C302.784 412.397 301.605 412.79 300.384 412.926C297.946 413.23 295.411 412.617 293.046 413.286C292.679 413.346 292.334 413.497 292.04 413.723C291.745 413.95 291.512 414.246 291.36 414.584C291.302 415.041 291.266 415.501 291.253 415.961C290.978 417.462 289.006 417.799 287.472 417.788L281.145 417.749C279.83 417.749 278.374 417.676 277.43 416.765C276.982 416.268 276.728 415.625 276.718 414.955C276.708 414.285 276.941 413.634 277.374 413.123C281.027 412.971 284.617 413.123 288.258 412.37C289.736 412.072 291.192 411.679 292.686 411.471C295.923 411.01 299.367 411.403 302.34 410.032C304.818 408.908 306.593 406.621 307.644 404.069C307.948 405.894 307.548 407.766 306.526 409.307Z" fill="black"/>
<path d="M289.832 400.422C287.584 402.164 284.949 403.524 282.117 403.67C279.285 403.816 276.279 402.546 274.891 400.084C272.862 396.471 274.66 391.446 272.177 388.13C271.401 387.09 270.283 386.354 269.463 385.348C268.642 384.342 268.17 382.83 268.901 381.763C268.019 382.1 267.086 381.245 266.827 380.335C266.569 379.424 266.732 378.447 266.574 377.525C266.164 375.08 263.765 373.512 262.613 371.343C261.461 369.173 261.618 366.358 261.489 363.789C261.202 357.531 258.873 351.54 254.859 346.732C254.094 345.821 253.117 344.894 251.925 344.939C252.133 342.882 250.762 340.915 248.987 339.881C247.211 338.847 245.098 338.498 243.042 338.296C222.29 336.25 200.668 343.967 180.855 337.475C175.343 335.671 170.027 332.653 166.656 327.921C165.343 326.12 164.403 324.074 163.893 321.905C163.382 319.735 163.311 317.485 163.684 315.287V315.208C164.465 311.218 166.572 310.234 170.061 308.413C174.09 306.283 178.3 304.517 182.642 303.136C191.071 300.5 200.146 299.55 208.844 301.484C212.907 302.394 216.823 303.9 220.891 304.783C222.493 305.131 224.105 305.379 225.729 305.586C228.252 305.901 230.787 306.109 233.326 306.401C241.447 307.337 249.446 309.136 257.185 311.769C260.068 312.747 262.95 313.865 265.428 315.635C267.393 317.061 269.054 318.863 270.314 320.938C271.574 323.013 272.408 325.318 272.767 327.719C273.003 329.371 273.008 331.091 273.368 332.693C273.709 334.039 274.16 335.355 274.716 336.627C279.518 348.5 283.441 360.71 286.455 373.158C286.626 374.083 286.942 374.974 287.393 375.8C288.112 376.963 289.349 377.744 290.073 378.907C291.759 381.65 290.135 385.477 291.63 388.333C292.147 389.322 293.007 390.103 293.523 391.092C295.198 394.296 292.709 398.19 289.832 400.422Z" fill="#454B69"/>
<path opacity="0.1" d="M261.118 335.846C261.917 335.213 262.606 334.454 263.158 333.598C263.712 332.737 263.931 331.703 263.776 330.692C263.995 331.971 263.912 333.285 263.532 334.526C263.152 335.767 262.487 336.903 261.59 337.841C260.18 339.285 257.533 340.701 255.471 340.207C255.763 338.555 259.809 336.97 261.118 335.846Z" fill="black"/>
<path opacity="0.1" d="M226.01 307.835C225.841 308.437 225.524 308.988 225.088 309.437C224.653 309.886 224.112 310.22 223.515 310.409C222.317 310.775 221.063 310.922 219.812 310.841H218.689C203.944 310.515 189.042 307.244 174.641 310.364C172.905 310.722 171.202 311.223 169.55 311.864C167.445 312.694 165.474 313.83 163.7 315.236V315.158C164.481 311.167 166.589 310.184 170.078 308.363C174.103 306.251 178.307 304.502 182.642 303.136C191.071 300.5 200.146 299.55 208.844 301.484C212.907 302.394 216.823 303.9 220.891 304.783C222.493 305.131 224.105 305.379 225.729 305.586C226.044 306.291 226.142 307.074 226.01 307.835Z" fill="black"/>
<path d="M226.01 307.031C225.842 307.635 225.526 308.187 225.09 308.637C224.654 309.088 224.113 309.422 223.515 309.611C222.317 309.978 221.062 310.123 219.812 310.038H218.689C203.944 309.712 189.042 306.441 174.641 309.56C172.906 309.919 171.203 310.419 169.55 311.055C167.345 311.934 165.289 313.147 163.453 314.652C163.022 313.468 162.593 312.282 162.166 311.094C161.649 309.678 163.29 309.363 163.605 308.093C163.813 307.233 163.459 306.255 163.279 305.339C163.233 305.115 163.203 304.888 163.189 304.659C163.088 302.63 163.813 301.461 165.476 300.365C170.41 297.106 176.428 294.869 182.058 293.188C185.051 292.242 188.143 291.642 191.273 291.401C195.701 291.143 200.123 291.963 204.433 293.003C209.732 294.312 214.974 296.043 219.672 298.814C221.981 300.174 224.223 301.866 225.454 304.254C225.95 305.09 226.146 306.069 226.01 307.031Z" fill="#A26565"/>
<path opacity="0.1" d="M178.546 273.276C176.86 278.621 172.258 283.437 166.656 283.668C166.248 283.715 165.836 283.641 165.47 283.454C164.768 283.016 164.751 281.987 165.038 281.206C165.324 280.425 165.824 279.722 165.903 278.902C165.92 278.734 165.908 278.565 165.869 278.402C168.842 274.209 171.724 269.971 172.865 265.009C173.096 264.154 173.167 263.264 173.073 262.384C172.921 261.372 172.41 260.456 172.129 259.478C171.635 257.747 171.865 255.915 172.005 254.122C172.595 246.219 171.277 238.289 168.162 231.001C167.403 229.247 166.538 227.472 166.274 225.6C166.663 224.854 167.326 224.288 168.123 224.021C169.966 223.402 171.174 224.364 171.444 226.111C171.893 229.085 171.635 232.119 172.225 235.104C172.77 237.895 173.597 240.623 174.691 243.247C175.686 245.619 176.894 247.912 177.658 250.368C178.234 252.393 178.645 254.46 178.889 256.55C179.659 262.154 180.249 267.931 178.546 273.276Z" fill="black"/>
<path opacity="0.1" d="M226.01 307.031C225.842 307.635 225.526 308.187 225.09 308.637C224.654 309.088 224.113 309.422 223.515 309.611C222.318 309.978 221.063 310.123 219.812 310.038H218.689C213.889 306.849 208.119 305.456 202.393 306.104C200.562 306.323 198.73 306.75 196.898 306.581C193.195 306.244 190.194 303.58 186.896 301.877C183.143 300.024 178.921 299.334 174.773 299.897C170.625 300.459 166.74 302.249 163.616 305.036L163.296 305.317C163.25 305.092 163.22 304.865 163.206 304.637C163.105 302.608 163.83 301.439 165.493 300.343C170.426 297.083 176.444 294.846 182.075 293.166C185.068 292.219 188.16 291.62 191.29 291.379C195.718 291.12 200.14 291.941 204.45 292.98C209.749 294.29 214.991 296.021 219.689 298.792C221.998 300.152 224.24 301.843 225.471 304.232C225.966 305.076 226.156 306.064 226.01 307.031Z" fill="black"/>
<path d="M238.614 245.467L238.535 245.67C237.277 248.935 234.961 251.694 233.478 254.876C231.607 258.905 231.146 263.424 230.73 267.853C230.371 271.646 230.017 275.462 230.303 279.267C231.022 288.642 235.602 297.533 236.827 306.727C237.129 308.851 237.206 311 237.057 313.14C236.956 314.494 236.709 315.95 235.81 316.951C234.911 317.951 233.163 318.344 232.197 317.383C232.63 316.557 233.068 315.737 233.506 314.91C230.938 312.915 227.072 314.348 224.072 313.101C222.751 312.539 221.695 311.527 220.588 310.622C218.061 308.568 215.15 307.039 212.024 306.126C208.899 305.213 205.623 304.934 202.388 305.305C200.556 305.53 198.724 305.957 196.892 305.789C193.189 305.446 190.189 302.788 186.89 301.085C183.137 299.232 178.916 298.542 174.769 299.104C170.621 299.666 166.736 301.453 163.61 304.238C162.824 304.968 161.767 305.823 160.801 305.362C160.427 305.133 160.126 304.804 159.93 304.412C156.249 298.123 158.958 290.013 162.891 283.887C166.825 277.761 172.033 272.113 173.652 265.031C173.885 264.177 173.956 263.287 173.86 262.407C173.708 261.395 173.197 260.479 172.916 259.501C172.421 257.77 172.652 255.938 172.792 254.145C173.382 246.241 172.064 238.311 168.949 231.023C168.05 228.927 166.982 226.803 166.982 224.527C166.982 220.941 169.55 217.968 171.674 215.085C174.118 211.769 176.169 208.099 179.265 205.373C182.198 202.782 186.446 201.197 190.076 202.512C196.245 201.02 202.594 200.407 208.934 200.691C211.125 200.792 213.39 201.023 215.312 202.085C217.368 203.209 218.846 205.21 220.869 206.407C222.347 207.289 224.049 207.705 225.656 208.324C230.097 210.061 233.76 213.344 235.973 217.569C238.221 221.924 238.782 226.932 239.277 231.81C239.76 236.368 240.21 241.145 238.614 245.467Z" fill="#6C63FF"/>
<path opacity="0.1" d="M230.303 279.267C231.023 288.642 235.602 297.533 236.827 306.727C234.377 304.637 230.978 302.569 230.511 300.157C230.005 297.55 228.387 294.133 228.117 291.497C227.848 288.861 229.696 285.64 227.758 283.831C226.814 282.948 229.326 283.196 228.404 282.291C226.331 280.273 225.819 277.165 225.69 274.282C225.471 269.179 226.117 264.02 225.179 259.001C224.617 255.904 223.442 252.953 222.504 249.947C221.414 246.445 220.627 242.86 219.841 239.268C219.066 236.075 218.503 232.835 218.155 229.568C217.913 226.758 218.026 223.779 219.279 221.216C220.532 218.653 223.066 216.574 225.909 216.613C235.417 216.737 233.776 229.63 235.866 235.587C236.703 237.959 237.833 240.252 238.288 242.725C238.454 243.694 238.544 244.675 238.558 245.658C237.299 248.924 234.984 251.683 233.501 254.864C231.629 258.894 231.169 263.413 230.753 267.841C230.371 271.646 230.017 275.462 230.303 279.267Z" fill="black"/>
<path d="M236.484 235.441C237.321 237.813 238.451 240.106 238.906 242.579C239.665 246.721 238.49 251.121 239.766 255.134C240.098 255.991 240.376 256.867 240.597 257.759C240.817 259.035 240.564 260.338 240.564 261.637C240.564 263.727 241.221 265.751 241.805 267.757C243.781 274.573 245.089 281.566 245.711 288.636C245.804 290.536 246.103 292.421 246.604 294.256C246.84 294.878 247.043 295.512 247.211 296.156C247.362 297.015 247.398 297.89 247.318 298.758C247.166 301.512 246.857 304.277 247.166 307.02C247.475 309.762 248.475 312.544 250.538 314.382C248.694 314.781 246.745 315.18 244.947 314.59C242.418 313.764 240.901 311.218 239.614 308.902C237.985 305.946 231.792 303.282 231.152 299.961C230.652 297.359 229.033 293.941 228.764 291.3C228.494 288.659 230.337 285.449 228.398 283.64C227.46 282.757 229.972 282.999 229.045 282.1C226.977 280.082 226.465 276.974 226.336 274.085C226.117 268.988 226.758 263.829 225.825 258.81C225.263 255.713 224.089 252.762 223.15 249.75C222.06 246.254 221.273 242.669 220.487 239.072C219.71 235.879 219.147 232.638 218.801 229.371C218.559 226.561 218.666 223.577 219.925 221.014C221.184 218.451 223.718 216.377 226.555 216.411C236.023 216.585 234.394 229.484 236.484 235.441Z" fill="#6C63FF"/>
<path opacity="0.1" d="M209.389 237.638C210.277 238.678 211.418 239.819 212.761 239.617C212.659 239.778 212.497 239.894 212.311 239.938C212.125 239.982 211.93 239.951 211.766 239.853C211.444 239.639 211.185 239.342 211.019 238.993L209.097 235.75C208.844 235.329 207.102 232.872 206.675 234.289C206.506 234.89 208.956 237.133 209.389 237.638Z" fill="black"/>
<path opacity="0.1" d="M208.355 245.726C208.3 244.666 207.853 243.665 207.102 242.916C206.427 242.303 205.638 241.828 204.781 241.516C202.674 240.651 200.179 239.954 197.892 240.066C198.724 241.28 201.393 242.005 202.73 242.691C204.626 243.669 206.501 244.681 208.355 245.726Z" fill="black"/>
<path opacity="0.1" d="M214.339 268.746C213.952 271.624 211.597 273.804 209.215 275.49C206.832 277.176 204.158 278.627 202.601 281.066C201.522 282.752 201.039 284.708 200.123 286.467C199.112 288.406 197.6 290.035 196.392 291.856C195.184 293.677 194.24 295.852 194.611 298.011C194.616 298.11 194.642 298.207 194.686 298.296C194.731 298.385 194.793 298.464 194.869 298.528C194.985 298.576 195.112 298.595 195.236 298.581C195.361 298.567 195.481 298.522 195.583 298.449C198.033 297.167 198.999 294.239 200.028 291.705C201.107 289.146 202.323 286.647 203.669 284.219C204.276 283.095 204.944 281.869 206.074 281.245C206.847 280.923 207.639 280.647 208.445 280.419C209.589 279.895 210.592 279.107 211.373 278.121C214.44 274.461 216.042 269.793 215.868 265.02C215.834 264.014 215.778 259.169 214.266 260.664C212.755 262.159 214.598 266.79 214.339 268.746Z" fill="black"/>
<path d="M218.042 158.383C222.875 160.49 227.033 165.127 226.881 170.382C226.752 175.901 222.133 181.099 223.723 186.388C224.645 189.457 227.421 191.514 229.618 193.846C237.985 202.703 237.968 218.164 229.573 227.005C226.359 230.377 222.229 232.777 218.829 235.997C206.844 247.294 206.332 266.835 212.749 282.004C207.833 283.068 202.821 283.633 197.791 283.69C195.437 283.718 192.554 283.291 191.7 281.094C190.914 279.065 192.262 276.322 190.711 274.822C189.981 274.119 188.885 274.024 187.902 273.861C181.575 272.838 176.383 267.785 174.011 261.833C171.64 255.882 171.764 249.182 173.124 242.921C174.09 238.397 175.602 233.418 173.36 229.371C170.55 224.279 162.47 222.132 162.593 216.31C162.695 211.538 168.319 209.217 171.511 205.671C177.4 199.14 174.596 189.007 174.585 180.206C174.585 172.461 177.293 164.469 183.058 159.31C191.633 151.571 208.147 154.083 218.042 158.383Z" fill="#A26565"/>
<g opacity="0.1">
<path opacity="0.1" d="M174.281 223.599C171.814 219.148 165.336 216.945 163.83 212.567C163.076 213.589 162.653 214.816 162.616 216.085C162.492 221.908 170.561 224.054 173.382 229.152C174.308 230.957 174.698 232.989 174.506 235.008C175.394 231.097 176.175 227.016 174.281 223.599Z" fill="black"/>
<path opacity="0.1" d="M224.37 179.183C225.381 176.232 226.848 173.254 226.921 170.191C226.931 169.859 226.921 169.527 226.892 169.196C225.763 172.562 224.032 175.861 224.37 179.183Z" fill="black"/>
<path opacity="0.1" d="M175.248 194.903C177.181 188.793 175.512 181.217 175.506 174.439C175.506 173.619 175.54 172.793 175.602 171.972C174.936 174.592 174.6 177.284 174.601 179.987C174.613 184.826 175.461 190.075 175.248 194.903Z" fill="black"/>
<path opacity="0.1" d="M230.511 221.256C227.297 224.628 223.167 227.028 219.768 230.248C213.699 235.964 210.58 243.793 209.799 252.094C211.249 245.911 214.177 240.218 218.868 235.795C222.24 232.592 226.398 230.203 229.612 226.803C233.435 222.635 235.655 217.246 235.877 211.594C234.907 215.206 233.064 218.524 230.511 221.256Z" fill="black"/>
<path opacity="0.1" d="M198.73 277.924C196.375 277.924 193.493 277.519 192.639 275.322C191.852 273.299 193.201 270.556 191.65 269.05C190.919 268.347 189.818 268.252 188.84 268.089C182.519 267.071 177.327 262.013 174.955 256.067C173.208 251.672 172.831 246.878 173.27 242.146C173.225 242.331 173.185 242.517 173.146 242.708C171.809 248.969 171.668 255.674 174.034 261.625C176.4 267.577 181.597 272.63 187.919 273.647C188.919 273.81 190.02 273.911 190.728 274.608C192.296 276.114 190.93 278.857 191.717 280.88C192.571 283.078 195.454 283.51 197.808 283.482C202.838 283.424 207.849 282.86 212.766 281.796C212.073 280.157 211.467 278.481 210.951 276.777C206.916 277.495 202.828 277.878 198.73 277.924Z" fill="black"/>
</g>
<path opacity="0.1" d="M217.132 253.414C218.52 254.46 220.026 250.475 219.166 249.48C218.936 249.739 216.919 253.268 217.132 253.414Z" fill="black"/>
<path opacity="0.1" d="M223.049 325.544C224.684 324.982 226.42 324.42 227.488 323.071C228.37 321.986 229.095 317.681 227.23 319.744C225.645 321.503 224.898 323.846 223.049 325.544Z" fill="black"/>
<path opacity="0.1" d="M239.698 321.031C239.502 322.357 239.136 323.734 238.198 324.69C238.024 324.869 237.636 324.982 237.586 324.74C238.634 324.182 239.608 323.495 240.485 322.694C242.384 320.812 242.643 316.175 239.749 314.944C239.721 316.979 240.007 318.985 239.698 321.031Z" fill="black"/>
<path d="M259.685 312.674C259.685 312.674 243.738 306.407 237.973 307.053C232.208 307.7 244.503 316.788 244.503 316.788L251.852 321.745C251.852 321.745 256.348 320.059 256.645 319.929C256.943 319.8 259.685 312.674 259.685 312.674Z" fill="#454B69"/>
<path d="M149.962 245.445C149.962 245.445 161.942 238.498 177.754 247.131C193.566 255.764 196.201 306.564 196.201 306.564C196.201 306.564 189.734 358.326 214.671 346.816C214.671 346.816 260.185 332.681 264.743 335.795C264.743 335.795 269.058 335.795 260.433 337.712C251.807 339.628 218.503 350.171 218.503 350.171C218.503 350.171 207.731 353.937 203.169 350.171C198.606 346.406 185.677 350.655 183.996 324.768C182.885 308.455 180.885 292.215 178.007 276.12L173.562 262.941L149.962 245.445Z" fill="#565661"/>
<path d="M148.523 325.488C148.523 325.488 153.794 273.006 145.152 254.072C137.634 237.571 166.707 245.287 174.292 247.536C175.466 247.887 176.49 248.618 177.203 249.615C181.698 255.938 197.825 281.279 193.071 315.186C193.071 315.186 191.155 345.383 203.135 350.171L166.223 338.279C163.228 337.312 160.188 336.509 157.12 335.812C153.21 334.924 146.838 332.4 148.523 325.488Z" fill="white"/>
<path d="M374.736 231.597C374.736 231.597 372.157 243.613 383.636 245.035L384.35 243.703C384.35 243.703 375.449 235.334 374.736 231.597Z" fill="#6C63FF"/>
<path d="M387.997 243.607L385.328 244.169L385.064 244.231C385.064 244.231 377.939 238.448 378.029 225.538C378.975 227.438 380.104 229.241 381.4 230.922C384.255 234.682 387.463 239.645 387.997 243.607Z" fill="#6C63FF"/>
<path d="M388.902 244.849C388.691 244.985 388.452 245.072 388.203 245.105C387.954 245.137 387.702 245.113 387.463 245.035C380.608 243.433 382.928 221.098 382.928 221.098C383.305 221.272 383.721 224.111 385.294 227.781C388.064 234.227 391.11 243.231 388.902 244.849Z" fill="#6C63FF"/>
<path d="M404.101 231.597C404.101 231.597 404.545 243.613 393.065 245.035L392.357 243.703C392.357 243.703 403.387 235.334 404.101 231.597Z" fill="#6C63FF"/>
<path d="M400.808 225.544C400.898 238.453 391.672 244.237 391.672 244.237L391.408 244.175L388.739 243.613C389.267 239.65 392.481 234.665 395.296 230.934C396.885 228.899 398.739 227.086 400.808 225.544Z" fill="#6C63FF"/>
<path d="M391.335 243.675C390.921 244.176 390.398 244.576 389.806 244.844C389.626 244.925 389.438 244.987 389.244 245.029C387.559 245.422 386.997 244.208 387.064 242.14C387.221 238.459 389.536 232.08 391.61 227.309C393.105 223.869 395.543 221.261 395.914 221.093C395.914 221.098 395.813 238.487 391.335 243.675Z" fill="#6C63FF"/>
<path d="M389.424 213.264C389.424 213.264 381.771 240.409 388.356 244.501C394.942 248.592 391.11 215.663 389.424 213.264Z" fill="#6C63FF"/>
<path opacity="0.1" d="M374.736 231.597C374.736 231.597 372.157 243.613 383.636 245.035L384.35 243.703C384.35 243.703 375.449 235.334 374.736 231.597Z" fill="black"/>
<path opacity="0.1" d="M387.997 243.607L385.328 244.169L385.064 244.231C385.064 244.231 377.939 238.448 378.029 225.538C378.975 227.438 380.104 229.241 381.4 230.922C384.255 234.682 387.463 239.645 387.997 243.607Z" fill="black"/>
<path opacity="0.1" d="M388.902 244.849C388.691 244.985 388.452 245.072 388.203 245.105C387.954 245.137 387.702 245.113 387.463 245.035C380.608 243.433 382.928 221.098 382.928 221.098C383.305 221.272 383.721 224.111 385.294 227.781C388.064 234.227 391.11 243.231 388.902 244.849Z" fill="black"/>
<path opacity="0.1" d="M404.101 231.597C404.101 231.597 404.545 243.613 393.065 245.035L392.357 243.703C392.357 243.703 403.387 235.334 404.101 231.597Z" fill="black"/>
<path opacity="0.1" d="M400.808 225.544C400.898 238.453 391.672 244.237 391.672 244.237L391.408 244.175L388.739 243.613C389.267 239.65 392.481 234.665 395.296 230.934C396.885 228.899 398.739 227.086 400.808 225.544Z" fill="black"/>
<path opacity="0.1" d="M391.335 243.675C390.921 244.176 390.398 244.576 389.806 244.844C389.626 244.925 389.438 244.987 389.244 245.029C387.559 245.422 386.997 244.208 387.064 242.14C387.221 238.459 389.536 232.08 391.61 227.309C393.105 223.869 395.543 221.261 395.914 221.093C395.914 221.098 395.813 238.487 391.335 243.675Z" fill="black"/>
<path opacity="0.1" d="M389.424 213.264C389.424 213.264 381.771 240.409 388.356 244.501C394.942 248.592 391.11 215.663 389.424 213.264Z" fill="black"/>
<path d="M374.736 231.597C374.736 231.597 373.224 243.613 384.704 245.035L385.418 243.703C385.418 243.703 375.449 235.334 374.736 231.597Z" fill="#6C63FF"/>
<path d="M389.064 243.607L386.395 244.169L386.131 244.231C386.131 244.231 377.939 238.448 378.029 225.538C378.029 225.538 380.13 227.786 382.496 230.922C385.322 234.682 388.531 239.645 389.064 243.607Z" fill="#6C63FF"/>
<path opacity="0.1" d="M389.064 243.607L386.395 244.169C383.867 241.949 382.861 236.149 382.496 230.922C385.322 234.682 388.531 239.645 389.064 243.607Z" fill="black"/>
<path d="M389.986 244.849C389.775 244.985 389.537 245.072 389.288 245.105C389.039 245.137 388.786 245.113 388.548 245.035C381.692 243.433 382.928 221.098 382.928 221.098C383.305 221.272 384.788 224.111 386.362 227.781C389.132 234.227 392.166 243.231 389.986 244.849Z" fill="#6C63FF"/>
<path d="M404.101 231.597C404.101 231.597 405.613 243.613 394.133 245.035L393.425 243.703C393.425 243.703 403.387 235.334 404.101 231.597Z" fill="#6C63FF"/>
<path d="M400.808 225.544C400.898 238.47 392.711 244.237 392.711 244.237L392.447 244.175L389.778 243.613C390.306 239.65 393.52 234.665 396.336 230.934C398.712 227.792 400.808 225.544 400.808 225.544Z" fill="#6C63FF"/>
<path opacity="0.1" d="M396.336 230.928C395.993 235.801 395.105 241.168 392.964 243.68C392.813 243.856 392.649 244.021 392.475 244.175L389.806 243.613C390.306 239.645 393.52 234.682 396.336 230.928Z" fill="black"/>
<path d="M392.402 243.675C391.989 244.176 391.466 244.576 390.874 244.844C390.694 244.925 390.505 244.987 390.312 245.029C388.626 245.422 388.036 244.208 388.132 242.14C388.289 238.459 390.604 232.08 392.678 227.309C394.172 223.869 395.555 221.261 395.914 221.093C395.914 221.098 396.881 238.487 392.402 243.675Z" fill="#6C63FF"/>
<path opacity="0.1" d="M389.986 244.849C389.597 244.848 389.218 244.726 388.902 244.501C385.676 242.494 385.614 234.946 386.379 227.781C389.132 234.227 392.166 243.231 389.986 244.849Z" fill="black"/>
<path opacity="0.1" d="M392.402 243.675C392.031 244.473 391.531 244.9 390.874 244.843C390.546 244.798 390.233 244.679 389.958 244.495C389.12 243.919 388.484 243.096 388.137 242.14C388.295 238.459 390.61 232.08 392.683 227.309C393.419 233.94 393.667 240.96 392.402 243.675Z" fill="black"/>
<path d="M389.424 213.264C389.424 213.264 382.839 240.409 389.424 244.501C396.01 248.592 391.11 215.663 389.424 213.264Z" fill="#6C63FF"/>
<path d="M399.746 245.838L399.286 248.238L397.611 257.051H381.675L380.001 248.238L379.54 245.838H399.746Z" fill="#565661"/>
<path opacity="0.1" d="M399.746 245.838L399.286 248.238H380.001L379.54 245.838H399.746Z" fill="black"/>
<path d="M403.123 243.169H375.719V247.71H403.123V243.169Z" fill="#565661"/>
<path d="M310.605 251.886L295.586 253.094L274.183 251.7L274.553 251.666L294.378 249.756C298.918 248.07 295.771 238.262 295.771 238.262L310.943 239.038L312.151 239.1C317.551 251.7 310.605 251.886 310.605 251.886Z" fill="#D1D9EC"/>
<path opacity="0.1" d="M310.605 251.886L295.586 253.094L274.183 251.7L274.553 251.666L296.187 252.442L310.684 250.868C314.797 249.784 312.443 242.64 310.959 239.038L312.168 239.1C317.551 251.7 310.605 251.886 310.605 251.886Z" fill="black"/>
<path d="M336.886 162.637L332.295 228.5L331.694 237.149C331.627 238.102 331.199 238.992 330.499 239.641C329.799 240.289 328.878 240.646 327.923 240.64H326.53L257.415 240.218C257.146 240.216 256.879 240.158 256.634 240.048C256.388 239.937 256.167 239.777 255.987 239.576C255.807 239.376 255.67 239.14 255.586 238.884C255.502 238.627 255.473 238.356 255.499 238.088L256.095 232.249L260.955 184.443C261.033 183.687 261.324 182.968 261.794 182.371C262.265 181.774 262.896 181.323 263.613 181.071L329.486 158.259C331.733 157.483 333.981 157.759 335.436 158.945C335.963 159.393 336.371 159.965 336.624 160.609C336.877 161.253 336.967 161.95 336.886 162.637Z" fill="#4C4C56"/>
<path d="M332.295 228.5L331.694 237.149C331.627 238.102 331.199 238.992 330.499 239.641C329.799 240.289 328.878 240.646 327.923 240.64H326.53L257.415 240.218C257.146 240.216 256.879 240.158 256.634 240.048C256.388 239.937 256.167 239.777 255.987 239.576C255.807 239.376 255.67 239.14 255.586 238.884C255.502 238.627 255.473 238.356 255.499 238.088L256.095 232.249L332.295 228.5Z" fill="#DFE6F5"/>
<path d="M285.96 237.526C286.472 237.526 286.887 236.696 286.887 235.671C286.887 234.647 286.472 233.817 285.96 233.817C285.448 233.817 285.033 234.647 285.033 235.671C285.033 236.696 285.448 237.526 285.96 237.526Z" fill="white"/>
<path d="M319.793 254.055C319.793 254.055 338.695 246.917 343.792 252.11C343.792 252.11 344.623 253.684 341.196 254.055L327.345 255.179C327.345 255.179 321.647 255.724 319.793 254.055Z" fill="#D1D9EC"/>
<path d="M320.31 252.2C324.024 250.683 335.2 246.754 342.353 251.076C342.353 251.076 334.436 250.2 330.092 252.712C325.749 255.224 319.804 254.033 319.804 254.033L319.72 253.875C319.64 253.728 319.592 253.566 319.579 253.399C319.565 253.232 319.587 253.065 319.643 252.907C319.698 252.749 319.786 252.605 319.901 252.483C320.016 252.361 320.155 252.265 320.31 252.2Z" fill="#DFE6F5"/>
<path d="M336.886 162.637L331.694 237.161C331.627 238.113 331.199 239.004 330.499 239.652C329.799 240.3 328.878 240.657 327.923 240.651H326.53C327.487 239.736 328.302 238.683 328.946 237.526C328.946 237.526 334.043 162.654 334.413 160.799C334.579 160.105 334.935 159.47 335.442 158.967C335.964 159.414 336.369 159.982 336.621 160.622C336.873 161.262 336.964 161.954 336.886 162.637Z" fill="#DFE6F5"/>
<path opacity="0.1" d="M336.886 162.637L331.694 237.161C331.627 238.113 331.199 239.004 330.499 239.652C329.799 240.3 328.878 240.657 327.923 240.651H326.53C327.487 239.736 328.302 238.683 328.946 237.526C328.946 237.526 334.043 162.654 334.413 160.799C334.579 160.105 334.935 159.47 335.442 158.967C335.964 159.414 336.369 159.982 336.621 160.622C336.873 161.262 336.964 161.954 336.886 162.637Z" fill="black"/>
<path opacity="0.1" d="M83.7073 419.109C113.946 419.109 138.46 415.171 138.46 410.313C138.46 405.455 113.946 401.518 83.7073 401.518C53.4685 401.518 28.9551 405.455 28.9551 410.313C28.9551 415.171 53.4685 419.109 83.7073 419.109Z" fill="#6C63FF"/>
<path d="M85.4661 241.814H81.9429V321.154H85.4661V241.814Z" fill="#535461"/>
<path d="M107.611 320.913L107.392 324.487L107.077 329.545L106.948 331.647L106.639 336.705L106.504 338.807L106.189 343.866L102.638 401.231C102.484 403.699 101.395 406.016 99.593 407.709C97.7912 409.403 95.412 410.346 92.9395 410.347H74.4696C71.9982 410.346 69.6203 409.402 67.8203 407.708C66.0204 406.015 64.9339 403.698 64.7823 401.231L61.2198 343.826L60.9107 338.768L60.7815 336.666L60.4612 331.608L60.332 329.506L60.0229 324.448L59.7982 320.873C59.7593 320.188 59.8602 319.502 60.0947 318.857C60.3293 318.213 60.6926 317.622 61.1625 317.122C61.6325 316.622 62.1992 316.223 62.8283 315.949C63.4573 315.675 64.1355 315.532 64.8216 315.529H102.593C103.282 315.533 103.963 315.677 104.594 315.954C105.226 316.231 105.794 316.634 106.263 317.138C106.733 317.642 107.095 318.237 107.327 318.886C107.559 319.535 107.655 320.225 107.611 320.913Z" fill="#565661"/>
<path d="M107.392 324.487L107.077 329.529H60.3376L60.0229 324.487H107.392Z" fill="#9D9CB5"/>
<path d="M106.948 331.636L106.639 336.683H60.7815L60.4668 331.636H106.948Z" fill="#9D9CB5"/>
<path d="M106.504 338.785L106.189 343.826H61.2198L60.9107 338.785H106.504Z" fill="#9D9CB5"/>
<path d="M54.6398 271.551C75.1607 286.399 83.7073 309.622 83.7073 309.622C83.7073 309.622 58.9834 308.773 38.4569 293.925C17.9305 279.076 9.39508 255.859 9.39508 255.859C9.39508 255.859 34.1246 256.708 54.6398 271.551Z" fill="#6C63FF"/>
<path d="M9.39508 255.859C9.39508 255.859 35.0574 270.089 43.2893 281.892C51.5213 293.694 83.7017 309.611 83.7017 309.611" stroke="#535461" stroke-width="2" stroke-miterlimit="10"/>
<path d="M67.884 241.64C79.0547 249.716 83.7073 262.362 83.7073 262.362C83.7073 262.362 70.2216 261.895 59.0789 253.819C47.9363 245.743 43.2893 233.097 43.2893 233.097C43.2893 233.097 56.7189 233.558 67.884 241.64Z" fill="#6C63FF"/>
<path d="M43.2893 233.097C43.2893 233.097 57.2584 240.853 61.7368 247.271C66.2152 253.69 83.7354 262.362 83.7354 262.362" stroke="#535461" stroke-width="2" stroke-miterlimit="10"/>
<path d="M99.9352 261.715C87.1181 275.816 84.3928 294.256 84.3928 294.256C84.3928 294.256 102.481 289.816 115.298 275.71C128.115 261.603 130.84 243.18 130.84 243.18C130.84 243.18 112.764 247.609 99.9352 261.715Z" fill="#6C63FF"/>
<path d="M130.851 243.174C130.851 243.174 114.14 257.629 109.892 267.588C105.644 277.547 84.3928 294.256 84.3928 294.256" stroke="#535461" stroke-width="2" stroke-miterlimit="10"/>
<g opacity="0.87">
<path opacity="0.87" d="M460.146 88.2538C457.988 86.0563 455.707 83.6115 455.28 80.4305C454.948 77.9689 455.841 75.4791 457.055 73.3772C458.269 71.2752 459.865 69.4431 461.208 67.4198C462.893 64.8176 464.175 61.8895 466.085 59.4616C469.035 55.7129 473.334 53.4536 477.75 52.3015C482.167 51.1493 486.741 51.0088 491.292 50.874C494.933 50.7672 498.636 50.6716 502.154 51.6889C504.727 52.4307 507.127 53.7515 509.492 55.061C512.813 56.91 516.174 58.8209 518.854 61.6422C521.496 64.4574 523.335 67.9294 524.181 71.6968C525.136 75.8388 524.861 80.4193 522.894 84.1174C522.016 85.6498 520.995 87.0951 519.843 88.4337L516.381 92.7106C515.66 93.6921 514.8 94.5646 513.83 95.3015C512.592 96.0422 511.222 96.5347 509.796 96.7516C500.1 98.8098 490.218 99.8607 480.307 99.8876C476.728 99.8876 473.834 97.9206 470.535 96.5155C466.512 94.7395 463.264 91.4236 460.146 88.2538Z" fill="#454B69"/>
<path opacity="0.1" d="M463.478 88.2538C461.433 86.0563 459.269 83.6115 458.859 80.4305C458.55 77.9689 459.376 75.4791 460.545 73.3772C461.713 71.2752 463.225 69.4431 464.478 67.4198C466.091 64.8176 467.288 61.8895 469.103 59.4616C471.912 55.7129 475.98 53.4536 480.172 52.3015C484.364 51.1493 488.707 51.0088 493.012 50.874C496.467 50.7672 499.974 50.6716 503.311 51.6889C505.756 52.4307 508.026 53.7515 510.274 55.061C513.42 56.91 516.612 58.8209 519.152 61.6422C521.675 64.4893 523.417 67.9418 524.209 71.663C525.113 75.8051 524.849 80.3856 522.989 84.0836C522.16 85.6087 521.191 87.0537 520.096 88.4L516.808 92.6769C516.133 93.6549 515.319 94.5296 514.392 95.2734C513.228 96.0101 511.926 96.5033 510.566 96.7234C501.385 98.7803 492.008 99.8319 482.6 99.8595C479.228 99.8595 476.464 97.8925 473.334 96.4874C469.518 94.7395 466.433 91.4236 463.478 88.2538Z" fill="black"/>
<path opacity="0.87" d="M463.669 53.448C466.179 50.7831 468.831 48.2559 471.614 45.8776C475.733 42.3481 480.684 38.9198 486.555 38.6894C490.095 38.6486 493.584 39.5402 496.67 41.2747C499.698 42.8989 502.289 45.0177 504.874 47.1197L515.083 55.4713C515.938 56.1682 516.831 56.9269 517.056 57.9048C517.107 58.1645 517.101 58.4324 517.036 58.6892C516.972 58.946 516.851 59.1852 516.682 59.3896C516.514 59.5939 516.303 59.7583 516.063 59.8709C515.823 59.9835 515.562 60.0414 515.297 60.0405C514.771 59.9698 514.269 59.7774 513.83 59.4785C507.051 55.8262 499.511 53.813 491.814 53.6002C484.117 53.3874 476.478 54.981 469.507 58.2533C467.782 59.0738 464.45 62.0413 462.691 60.8386C460.18 59.1019 462.141 55.0666 463.669 53.448Z" fill="#454B69"/>
<path opacity="0.1" d="M505.053 86.0901C498.311 84.4771 491.056 84.5276 483.948 84.5951C479.133 84.6401 474.115 84.7187 469.827 86.2474C466.889 87.2984 464.259 89.3947 464.815 91.6597C465.372 93.9246 468.58 95.2116 471.468 96.2345C477.649 98.4264 484.291 100.674 491.135 100.039C498.226 99.3874 521.416 90.0186 505.053 86.0901Z" fill="black"/>
<path opacity="0.87" d="M468.878 87.6637C466.108 87.6637 465.388 91.5304 465.849 94.2562C466.31 96.982 466.58 100.624 464.023 101.68C463.146 101.946 462.227 102.042 461.315 101.961C455.134 101.99 449.627 105.671 444.547 109.206C443.676 109.818 442.76 110.476 442.345 111.454C442.041 112.168 442.013 113.011 441.513 113.595C440.981 114.08 440.319 114.398 439.608 114.511C436.674 115.429 434.111 117.261 432.291 119.739C430.471 122.217 429.491 125.212 429.494 128.286C423.088 130.45 418.705 137.464 419.576 144.169C417.29 144.914 415.324 146.411 413.998 148.417C412.671 150.422 412.063 152.817 412.271 155.213C406.793 157.714 404.298 165.211 407.214 170.494C408.231 172.349 409.72 174.838 408.136 176.238C410.085 178.879 412.209 181.656 415.294 182.774C418.379 183.893 422.599 182.403 423.105 179.16C424.579 179.959 426.243 180.34 427.918 180.261C429.592 180.182 431.214 179.646 432.606 178.712C433.998 177.778 435.108 176.481 435.817 174.961C436.525 173.441 436.804 171.757 436.624 170.089C441.322 169.353 444.491 163.671 442.704 159.271L447.396 157.191C446.143 158.735 445.39 160.625 445.237 162.608C445.084 164.591 445.54 166.573 446.542 168.291C447.025 168.917 447.374 169.637 447.565 170.404C447.744 171.759 446.677 172.916 445.879 174.052C444.884 175.578 444.341 177.354 444.311 179.175C444.281 180.997 444.766 182.79 445.71 184.348C446.272 185.27 447.048 186.158 447.098 187.242C447.154 188.535 446.194 189.614 445.564 190.744C442.755 195.774 446.638 201.776 450.301 206.199C445.682 210.78 447.638 219.26 452.762 223.268C457.887 227.275 464.894 227.803 471.384 227.354C477.874 226.904 484.403 225.667 490.826 226.685C494.197 227.247 497.423 228.404 500.794 228.848C506.582 229.613 512.448 228.197 517.944 226.229C520.922 225.162 524.125 223.672 525.378 220.772C526.794 217.513 525.254 213.792 525.187 210.24C525.085 204.912 528.328 200.073 529.007 194.785C529.423 191.547 528.867 188.282 528.446 185.05C527.255 175.902 527.158 166.644 528.159 157.472L529.845 160.035C530.038 160.063 530.234 160.048 530.421 159.992C530.607 159.936 530.78 159.84 530.925 159.71C531.071 159.581 531.186 159.421 531.264 159.242C531.341 159.063 531.378 158.87 531.373 158.675C531.705 162.171 529.204 166.773 532.216 168.583C533.104 169.145 534.2 169.145 535.205 169.376C537.111 169.932 538.744 171.173 539.79 172.86C541.364 175.209 542.038 178.109 543.87 180.29C545.702 182.471 549.438 183.527 551.214 181.319C556.688 181.403 561.994 179.429 566.082 175.788C565.618 175.229 565.275 174.58 565.074 173.882C564.874 173.183 564.821 172.451 564.919 171.73C568.341 171.775 569.779 167.01 568.515 163.823C567.251 160.636 564.498 158.203 563.256 155.022C562.132 152.139 562.261 148.699 560.323 146.282C559.407 145.13 558.075 144.338 557.226 143.146C556.164 141.691 555.889 139.83 555.383 138.088C553.995 133.396 550.832 129.43 546.567 127.033C547.809 121.239 543.758 115.411 537.992 113.961C537.332 113.843 536.686 113.654 536.065 113.399C533.969 112.353 533.576 109.588 532.317 107.61C530.311 104.451 526.215 103.501 522.534 102.827L511.42 100.77C510.77 100.711 510.149 100.472 509.627 100.079C509.187 99.604 508.921 98.9935 508.874 98.3477C508.414 95.1273 509.998 91.9069 509.751 88.6641C509.667 87.6918 509.234 86.5453 508.273 86.3823C507.753 86.3524 507.235 86.4755 506.784 86.7364C502.893 88.3933 498.866 89.7096 494.748 90.6705C491.73 91.5157 488.636 92.0579 485.51 92.2891C479.52 92.5814 473.71 91.2213 468.878 87.6637Z" fill="#454B69"/>
<path opacity="0.87" d="M512.319 58.242C513.932 57.118 515.589 55.904 516.707 54.0494C517.826 52.1947 518.258 49.4858 517.269 47.5468C518.601 49.8399 519.792 52.4701 519.742 55.3139C519.691 58.1577 517.955 61.0971 515.69 61.0521C517.376 60.9116 519.197 60.7037 520.472 59.3099C521.748 57.9161 521.978 54.8924 520.472 53.8976C521.168 54.6851 521.683 55.6155 521.981 56.6233C522.279 57.6311 522.353 58.692 522.197 59.7314C521.888 61.8727 520.607 63.7498 518.966 64.4523C520.405 60.6981 524.585 59.1244 527.451 61.2769C524.775 62.4754 522.601 64.5704 521.304 67.2006C523.04 65.9023 525.456 64.694 526.872 66.4981C524.136 67.0601 521.613 69.1059 520.129 72.0452C522.956 71.6802 525.812 71.6067 528.654 71.826C525.503 72.6051 522.734 74.4822 520.843 77.1202C522.92 77.7104 524.955 78.4408 526.934 79.3065C525.318 80.1471 523.505 80.5354 521.686 80.4305C525.057 82.8697 527.462 87.2759 528.058 92.0924C526.893 90.9418 525.587 89.9446 524.169 89.125C523.046 88.4899 521.731 88.0009 520.669 88.7428C519.607 89.4847 519.517 91.9688 520.714 92.2667L515.836 91.9126C516.664 92.4986 517.359 93.2515 517.878 94.1227C518.397 94.9938 518.727 95.964 518.848 96.9707C517.905 96.8972 516.993 96.6027 516.185 96.1109C518.285 98.0148 519.881 100.409 520.832 103.08C518.831 101.517 516.674 99.8989 514.319 99.9607C512.594 100.006 510.948 100.955 509.262 101.248C506.228 101.77 503.014 100.011 501.249 96.864C503.309 96.5512 505.411 96.6544 507.43 97.1675C507.093 94.9273 506.503 92.7326 505.672 90.6255C506.827 91.3837 507.829 92.3522 508.627 93.4806C508.958 90.5237 508.898 87.5361 508.447 84.5951L511.01 87.2534C510.762 85.2763 510.308 83.3306 509.655 81.4478C510.918 83.8395 512.605 85.9818 514.634 87.7705L510.852 81.2286L517.095 85.7472C517.741 85.2246 517.252 83.96 516.707 83.28C515.034 81.1803 513.081 79.3197 510.903 77.7497C512.618 78.0127 514.29 78.5101 515.87 79.2278C515.19 75.7096 512.235 73.1299 509.369 73.557C511.479 72.2953 513.833 71.4946 516.275 71.2078C513.83 69.3026 510.656 67.4029 508.268 69.4655C510.552 68.9242 512.759 68.0972 514.836 67.0039C514.233 66.2615 513.399 65.7418 512.466 65.527C511.534 65.3122 510.557 65.4146 509.689 65.818C508.003 66.6667 506.722 68.7967 506.576 71.0954C506.492 67.7907 508.47 64.5816 511.071 63.8454C510.066 63.3339 509.02 62.8112 507.936 62.8955C507.337 62.9599 506.777 63.2257 506.349 63.6493C505.92 64.0729 505.648 64.6295 505.576 65.2279C505.88 63.1644 506.572 61.1772 507.616 59.3717C506.188 58.6242 504.463 59.7089 503.682 61.3781C502.901 63.0473 502.873 65.1155 503.12 67.032C503.365 62.9022 503.176 58.7582 502.559 54.6676C501.904 57.891 501.7 61.1896 501.952 64.4692" fill="#6C63FF"/>
<path opacity="0.2" d="M489.314 92.2891H485.505V226.482H489.314V92.2891Z" fill="white"/>
<path opacity="0.1" d="M521.349 435.587C570.704 435.587 610.714 426.808 610.714 415.978C610.714 405.149 570.704 396.369 521.349 396.369C471.993 396.369 431.983 405.149 431.983 415.978C431.983 426.808 471.993 435.587 521.349 435.587Z" fill="#6C63FF"/>
<path opacity="0.87" d="M536.998 51.4135H530.418V431.782H536.998V51.4135Z" fill="#565661"/>
<path opacity="0.87" d="M533.711 79.2222C550.056 79.2222 563.306 77.0809 563.306 74.4394C563.306 71.798 550.056 69.6566 533.711 69.6566C517.365 69.6566 504.115 71.798 504.115 74.4394C504.115 77.0809 517.365 79.2222 533.711 79.2222Z" stroke="#565661" stroke-width="9" stroke-miterlimit="10"/>
<path opacity="0.87" d="M494.692 49.3846C492.603 49.9031 490.687 50.9639 489.14 52.46C487.592 53.956 486.466 55.8342 485.877 57.9048C485.287 59.9753 485.255 62.1648 485.782 64.252C486.31 66.3392 487.379 68.25 488.882 69.7915C492.326 73.3266 497.479 74.4394 502.283 75.5635C511.504 77.7216 521.388 81.105 526.378 89.1475C527.957 91.7343 528.935 94.643 529.239 97.6586C529.544 100.674 529.167 103.72 528.137 106.57C527.667 107.987 526.89 109.283 525.861 110.364C524.562 111.496 523.026 112.324 521.366 112.786C513.896 115.261 505.862 115.476 498.271 113.404" stroke="#565661" stroke-width="9" stroke-miterlimit="10"/>
<path opacity="0.87" d="M571.679 49.3846C573.767 49.9046 575.681 50.9662 577.227 52.4624C578.774 53.9586 579.899 55.8364 580.488 57.9063C581.077 59.9762 581.11 62.165 580.584 64.2517C580.057 66.3384 578.99 68.2493 577.489 69.7915C574.044 73.3266 568.892 74.4394 564.087 75.5635C554.866 77.7216 544.982 81.105 539.993 89.1475C538.414 91.7343 537.436 94.643 537.131 97.6586C536.827 100.674 537.204 103.72 538.234 106.57C538.695 107.985 539.463 109.28 540.482 110.364C541.781 111.496 543.317 112.324 544.977 112.786C552.446 115.261 560.48 115.476 568.071 113.404" stroke="#565661" stroke-width="9" stroke-miterlimit="10"/>
<path opacity="0.87" d="M533.711 304.092C548.901 304.092 561.216 300.612 561.216 296.319C561.216 292.026 548.901 288.546 533.711 288.546C518.52 288.546 506.205 292.026 506.205 296.319C506.205 300.612 518.52 304.092 533.711 304.092Z" stroke="#565661" stroke-width="9" stroke-miterlimit="10"/>
<path opacity="0.87" d="M533.711 401.77C548.901 401.77 561.216 398.29 561.216 393.998C561.216 389.705 548.901 386.225 533.711 386.225C518.52 386.225 506.205 389.705 506.205 393.998C506.205 398.29 518.52 401.77 533.711 401.77Z" stroke="#565661" stroke-width="9" stroke-miterlimit="10"/>
<path opacity="0.87" d="M507.043 298.685C517.793 308.871 525.249 322.042 528.451 336.503C529.069 339.15 529.445 341.848 529.575 344.563C529.789 350.745 528.221 356.882 526.204 362.744C522.399 373.838 516.747 384.618 507.88 392.284C499.923 399.163 489.899 403.114 479.925 406.452" stroke="#565661" stroke-width="9" stroke-miterlimit="10"/>
<path opacity="0.87" d="M560.373 298.685C549.622 308.871 542.166 322.042 538.964 336.503C538.349 339.151 537.973 341.848 537.841 344.563C537.627 350.745 539.195 356.882 541.212 362.744C545.011 373.838 550.663 384.618 559.536 392.284C567.487 399.163 577.517 403.114 587.485 406.452" stroke="#565661" stroke-width="9" stroke-miterlimit="10"/>
<path opacity="0.87" d="M486.999 46.3553H472.423V52.3183H486.999V46.3553Z" fill="#454B69"/>
<path opacity="0.87" d="M504.194 64.4973L501.244 56.2637C500.976 55.2997 500.492 54.4097 499.828 53.6616C499.131 53.0153 498.001 52.8635 497.389 53.6222C498.405 54.994 499.212 56.5093 499.783 58.1184C500.294 59.8044 500.294 61.7603 499.412 63.1765C498.939 58.4575 496.915 54.0284 493.658 50.5817C494.833 52.9916 495.8 55.4981 496.546 58.0734L492.528 53.3468C491.665 56.9265 491.684 60.6626 492.585 64.2331C490.379 61.4999 489.15 58.1069 489.095 54.5945C489.064 56.085 488.762 57.5573 488.202 58.9389C487.09 57.646 486.49 55.9905 486.516 54.2854C485.482 55.8651 484.802 57.6502 484.523 59.5179C484.245 61.3856 484.375 63.2915 484.903 65.1043C482.977 61.9601 481.933 58.3549 481.88 54.6676C480.667 58.3708 480.33 62.3053 480.897 66.1609C478.598 63.6117 477.188 60.3852 476.879 56.9662C476.957 60.4731 477.525 63.9519 478.565 67.3018C476.705 66.7791 475.666 64.576 474.677 62.682C473.688 60.788 472.126 58.7984 470.232 59.1413C471.989 61.0698 473.052 63.5308 473.249 66.1328C472.334 66.0091 471.642 65.0649 470.743 64.8457C469.473 64.5423 468.192 66.0597 468.395 67.5322C468.597 69.0047 470.108 69.9938 471.339 69.5386C470.472 69.182 469.519 69.0904 468.599 69.2754C467.68 69.4605 466.837 69.9139 466.175 70.5783C465.461 71.3291 464.931 72.236 464.627 73.2271C464.324 74.2182 464.256 75.2663 464.428 76.2884C465.158 74.164 467.366 72.877 469.282 73.4784C466.344 73.9055 463.866 76.9685 463.663 80.3743C464.383 79.8741 464.725 78.9018 465.315 78.2162C465.905 77.5305 467.091 77.2832 467.445 78.16C467.565 78.5919 467.553 79.0499 467.411 79.4751L465.911 86.0282L473.542 82.6955C473.058 85.7959 472.097 88.8027 470.693 91.6091L475.008 90.1928C473.193 92.0861 471.972 94.4698 471.496 97.0494C471.94 94.7451 474.913 92.8736 476.767 92.9804C477.127 96.5717 475.289 99.1963 472.272 99.4099C467.962 99.719 464.09 98.9715 459.82 100.483C460.663 99.2807 461.818 98.3309 463.16 97.7367C464.503 97.1424 465.983 96.9262 467.439 97.1112C465.265 94.0707 461.371 92.8455 458.157 94.2C458.753 93.3247 459.559 92.613 460.502 92.13C461.444 91.6469 462.492 91.4079 463.551 91.4349C462.079 88.9844 458.949 88.1133 456.668 89.5184C457.565 87.8155 459.021 86.4738 460.792 85.7191C459.162 84.2804 456.859 84.1679 454.914 84.8424C452.97 85.5168 451.223 86.8769 449.537 88.2145C449.247 87.3799 449.177 86.4845 449.335 85.6151C449.492 84.7456 449.872 83.9316 450.436 83.2519C450.962 82.6515 451.674 82.2445 452.458 82.0958C453.242 81.9471 454.054 82.0652 454.763 82.4313C454.066 80.3518 452.071 78.9637 450.155 79.2166C450.726 78.3946 451.551 77.7838 452.504 77.479C453.457 77.1741 454.484 77.1923 455.426 77.5305C455.463 76.2248 455.206 74.9274 454.675 73.7339C454.144 72.5405 453.352 71.4813 452.358 70.6345C453.804 71.05 455.075 71.9237 455.982 73.1243C456.196 72.1644 456.212 71.1711 456.029 70.2049C455.847 69.2387 455.469 68.3198 454.92 67.5041C453.846 65.9978 452.541 64.6701 451.054 63.57C454.011 62.6743 457.17 62.69 460.118 63.6149L457.533 54.4203L462.742 60.9734C462.152 57.6356 461.979 54.2376 462.225 50.8571C462.9 53.2598 463.93 55.5481 465.282 57.6463C464.892 54.5639 464.671 51.4626 464.619 48.3561C464.619 47.5637 464.675 46.6139 465.276 46.2261C465.877 45.8383 466.546 46.2261 466.962 46.7881C467.309 47.407 467.557 48.0764 467.698 48.772C468.306 50.9564 469.508 52.9293 471.17 54.4709C471.198 52.8642 471.562 51.2812 472.24 49.8241C472.917 48.3671 473.893 47.0686 475.104 46.0125C475.141 48.5149 475.479 51.0037 476.11 53.4255C474.424 53.3187 473.485 50.8852 473.986 49.0418C474.486 47.1984 475.924 45.9226 477.357 44.9222C478.79 43.9218 480.335 43.0113 481.347 41.477C481.005 45.0743 481.248 48.7031 482.066 52.2228C482.594 49.7949 482.56 47.2265 483.24 44.8491C483.92 42.4718 485.651 40.1956 487.814 40.2687C486.917 41.5341 486.218 42.929 485.741 44.4051C485.319 45.9282 485.387 47.7267 486.258 48.9743C486.567 46.7263 486.887 44.4164 487.758 42.3594C488.629 40.3024 490.135 38.4814 492.068 37.9644C490.966 41.7915 491.255 45.8849 492.882 49.5195C492.882 46.2485 493.793 42.5617 496.327 41.0892C495.745 42.0457 495.381 43.1184 495.259 44.2314C495.138 45.3444 495.263 46.4705 495.625 47.5299C495.553 44.4989 496.332 41.5084 497.872 38.8973C497.87 42.6906 498.503 46.4576 499.743 50.0422C501.209 46.8885 503.241 44.0309 505.739 41.6119C505.173 45.2194 505.535 48.9117 506.79 52.3408C506.639 50.7658 506.703 49.1775 506.981 47.6199C507.335 46.0912 508.2 44.6299 509.487 44.0848L509.728 54.7069C512.442 53.167 513.358 48.5247 511.498 45.7877C513.69 47.0916 515.994 48.536 517.202 51.0201C518.41 53.5042 517.837 57.3316 515.516 58.2364" fill="#6C63FF"/>
<path opacity="0.87" d="M485.224 47.5468H481.863C478.757 47.5468 476.239 50.0656 476.239 53.1726C476.239 56.2797 478.757 58.7984 481.863 58.7984H485.224C488.33 58.7984 490.848 56.2797 490.848 53.1726C490.848 50.0656 488.33 47.5468 485.224 47.5468Z" fill="#6C63FF"/>
</g>
<path d="M53.9165 22.0011L67.872 35.7768L48.9641 40.9748L53.9165 22.0011Z" fill="#6C63FF" fill-opacity="0.4"/>
<path d="M62.9068 10.3489L69.1795 16.5408L60.6808 18.8773L62.9068 10.3489Z" fill="#6C63FF" fill-opacity="0.4"/>
<path d="M382.666 133.579L384.433 145.574L373.161 141.107L382.666 133.579Z" fill="#6C63FF" fill-opacity="0.33"/>
<path d="M625.453 101.116L632.441 111.023L620.366 112.121L625.453 101.116Z" fill="#6C63FF" fill-opacity="0.63"/>
<g opacity="0.6">
<circle cx="384.5" cy="13.5" r="7.5" fill="#6158F4"/>
<circle cx="384.5" cy="13.5" r="5.73529" fill="white"/>
</g>
</g>
<defs>
<linearGradient id="paint0_linear" x1="168.926" y1="103.597" x2="169.69" y2="103.597" gradientUnits="userSpaceOnUse">
<stop stop-color="#808080" stop-opacity="0.25"/>
<stop offset="0.54" stop-color="#808080" stop-opacity="0.12"/>
<stop offset="1" stop-color="#808080" stop-opacity="0.1"/>
</linearGradient>
<linearGradient id="paint1_linear" x1="1629.49" y1="241.105" x2="1662.89" y2="241.105" gradientUnits="userSpaceOnUse">
<stop stop-color="#808080" stop-opacity="0.25"/>
<stop offset="0.54" stop-color="#808080" stop-opacity="0.12"/>
<stop offset="1" stop-color="#808080" stop-opacity="0.1"/>
</linearGradient>
<linearGradient id="paint2_linear" x1="835.571" y1="950.207" x2="838.595" y2="950.207" gradientUnits="userSpaceOnUse">
<stop stop-color="#808080" stop-opacity="0.25"/>
<stop offset="0.54" stop-color="#808080" stop-opacity="0.12"/>
<stop offset="1" stop-color="#808080" stop-opacity="0.1"/>
</linearGradient>
<clipPath id="clip0">
<rect width="635" height="457" fill="white"/>
</clipPath>
</defs>
</svg>
