<svg width="60" height="60" viewBox="0 0 60 60" fill="none" xmlns="http://www.w3.org/2000/svg">
<path d="M33.5236 13.2472C33.5223 9.85982 34.8222 6.46362 37.4067 3.87906C42.5733 -1.28748 50.9499 -1.28748 56.1165 3.87906C61.283 9.0456 61.283 17.4223 56.1165 22.5888C53.5277 25.1776 50.133 26.4692 46.7401 26.4638L33.5236 13.2472Z" fill="#6D96FF"/>
<path d="M56.1252 22.5974C53.5369 25.1857 50.1418 26.4773 46.7484 26.4721L44.6929 24.4166C48.0863 24.4217 51.4814 23.1301 54.0697 20.5418C58.8884 15.7232 59.2129 8.10987 55.0409 2.91533C55.4161 3.21505 55.7775 3.53891 56.1252 3.88656C61.2915 9.05286 61.2915 17.4311 56.1252 22.5974Z" fill="#467AFF"/>
<path d="M55.1999 23.7292L36.2664 4.79569C35.8656 4.39496 35.8656 3.74525 36.2664 3.34464L38.5736 1.03743C38.9743 0.636704 39.624 0.636704 40.0246 1.03743L58.9582 19.971C59.3589 20.3717 59.3589 21.0214 58.9582 21.422L56.651 23.7292C56.2504 24.13 55.6006 24.13 55.1999 23.7292Z" fill="#26A6FE"/>
<path d="M58.9336 21.446L56.675 23.7046C56.2613 24.1184 55.589 24.1192 55.1754 23.7055L53.4812 22.0113C53.8958 22.4258 54.5681 22.425 54.9818 22.0113L57.2404 19.7527C57.6541 19.339 57.6541 18.6676 57.2396 18.253L58.9338 19.9472C59.3474 20.3609 59.3474 21.0324 58.9336 21.446Z" fill="#0593FC"/>
<path d="M11.3069 48.6888L8.00069 45.3826L0.459329 53.999C-0.184175 54.7342 -0.147383 55.8425 0.543575 56.5335L2.00294 57.9928L3.46231 59.4522C4.15326 60.1432 5.26158 60.18 5.99683 59.5365L14.6132 51.9951L11.3069 48.6888Z" fill="#E2DEE2"/>
<path d="M14.6129 51.9945L5.99659 59.5368C5.26088 60.1801 4.15338 60.1432 3.46218 59.452L1.42798 57.4178C2.11835 58.1081 3.22655 58.1458 3.96145 57.5017L12.5786 49.9603L14.6129 51.9945Z" fill="#CBC4CC"/>
<path d="M40.1361 19.86L33.5671 13.2912L29.7712 19.1767L29.6003 19.3027L29.3004 19.7656L8.00073 45.3829L11.3069 48.6891L14.6132 51.9953L40.2306 30.6956L40.6933 30.3958L40.717 30.2933L46.6879 26.4118L40.1361 19.86Z" fill="#6D96FF"/>
<path d="M46.7302 26.4546L40.7096 30.3637L40.6933 30.3955L40.2306 30.6953L14.6129 51.9945L12.5789 49.9603L38.1956 28.6603L44.7135 24.4378L46.7302 26.4546Z" fill="#467AFF"/>
<path d="M40.136 19.8597L33.5236 13.2472L29.6002 19.3024L35.1467 24.8489L40.6933 30.3955L46.7484 26.4721L40.136 19.8597Z" fill="#E2DEE2"/>
<path d="M46.7485 26.4728L40.6931 30.3956L38.6582 28.3605L44.6929 24.4173L46.7485 26.4728Z" fill="#CBC4CC"/>
<path d="M24.6763 35.4288L24.5669 35.3193C23.672 34.4245 23.672 32.9737 24.5669 32.079L27.8362 28.8097C28.731 27.9148 30.1818 27.9148 31.0766 28.8097L31.186 28.9191C32.0808 29.8139 32.0808 31.2647 31.186 32.1595L27.9167 35.4288C27.022 36.3236 25.5712 36.3236 24.6763 35.4288Z" fill="#E2DEE2"/>
<path d="M31.185 32.2251L27.9916 35.4184C27.0567 36.3534 25.5401 36.3534 24.6052 35.4184C24.2971 35.1103 24.0901 34.739 23.9863 34.3459C24.7845 34.5588 25.6717 34.352 26.2985 33.7252L29.4918 30.5318C29.9592 30.0644 30.193 29.4515 30.193 28.8386C30.193 28.6308 30.1662 28.4222 30.1125 28.2197C30.5055 28.3236 30.8768 28.5304 31.1851 28.8386C31.6525 29.306 31.8862 29.9189 31.8862 30.5318C31.8862 31.1448 31.6525 31.7576 31.185 32.2251Z" fill="#CBC4CC"/>
<path d="M25.0211 31.6184L27.3697 29.2698L30.7512 32.6513L28.4026 34.9999L25.0211 31.6184Z" fill="#433F43"/>
<path d="M26.7097 33.3071L29.0583 30.9585L30.7512 32.6515L28.4026 35L26.7097 33.3071Z" fill="#333133"/>
<path d="M19.3652 3.71525C18.8161 5.46754 17.3902 8.65214 14.0653 9.89532C13.7938 9.99679 13.7938 10.3874 14.0653 10.4889C17.3902 11.7321 18.8161 14.9167 19.3652 16.669C19.4581 16.9654 19.8793 16.9654 19.9721 16.669C20.5212 14.9167 21.9472 11.7321 25.272 10.4889C25.5435 10.3874 25.5435 9.99679 25.272 9.89532C21.9472 8.65214 20.5212 5.46754 19.9721 3.71525C19.8793 3.41881 19.4581 3.41881 19.3652 3.71525Z" fill="#FDB441"/>
<path d="M25.272 10.489C21.947 11.7317 20.5214 14.9162 19.9727 16.6689C19.8794 16.9657 19.4579 16.9657 19.3647 16.6689C19.12 15.8876 18.7021 14.8253 18.0201 13.7739C18.6342 12.4657 19.2168 11.1782 21.0617 10.489C21.333 10.3873 21.333 9.99726 21.0617 9.89555C19.2169 9.20518 18.6344 7.91759 18.0201 6.60937C18.7021 5.55917 19.1199 4.49572 19.3647 3.71571C19.4579 3.41892 19.8794 3.41892 19.9727 3.71571C20.5214 5.46719 21.947 8.65155 25.272 9.89555C25.5432 9.99726 25.5432 10.3873 25.272 10.489Z" fill="#FEA613"/>
<path d="M38.4155 41.8796C38.0142 43.1603 36.9721 45.4878 34.5422 46.3963C34.3438 46.4705 34.3438 46.756 34.5422 46.8302C36.9721 47.7388 38.0143 50.0662 38.4155 51.3469C38.4834 51.5636 38.7913 51.5636 38.8591 51.3469C39.2604 50.0662 40.3026 47.7388 42.7325 46.8302C42.9308 46.756 42.9308 46.4705 42.7325 46.3963C40.3026 45.4878 39.2603 43.1603 38.8591 41.8796C38.7913 41.663 38.4835 41.663 38.4155 41.8796Z" fill="#FDB441"/>
<path d="M42.7326 46.8302C40.3026 47.7385 39.2607 50.0658 38.8596 51.3467C38.7915 51.5636 38.4834 51.5636 38.4152 51.3467C38.2364 50.7757 37.9309 49.9993 37.4326 49.2309C37.8814 48.2748 37.8193 47.3338 39.1676 46.8301C39.3658 46.7557 39.3658 46.4707 39.1676 46.3963C37.8193 45.8918 37.8815 44.9507 37.4326 43.9947C37.9311 43.2272 38.2364 42.4499 38.4152 41.8799C38.4834 41.663 38.7915 41.663 38.8596 41.8799C39.2606 43.16 40.3026 45.4872 42.7326 46.3963C42.9309 46.4709 42.9309 46.7559 42.7326 46.8302Z" fill="#FEA613"/>
<path d="M51.6075 30.5733C51.1019 32.187 49.7886 35.1198 46.7267 36.2647C46.4767 36.3582 46.4767 36.7179 46.7267 36.8114C49.7886 37.9563 51.1019 40.889 51.6075 42.5027C51.693 42.7757 52.081 42.7757 52.1665 42.5027C52.6721 40.889 53.9853 37.9563 57.0473 36.8114C57.2973 36.7179 57.2973 36.3582 57.0473 36.2647C53.9853 35.1198 52.6722 32.187 52.1665 30.5733C52.081 30.3003 51.693 30.3003 51.6075 30.5733Z" fill="#FDB441"/>
<path d="M57.0472 36.8114C53.9853 37.9559 52.6724 40.8885 52.167 42.5025C52.0811 42.7757 51.6929 42.7757 51.607 42.5025C51.3817 41.7831 50.9969 40.8048 50.3689 39.8365C50.9345 38.6318 50.8562 37.4461 52.5551 36.8114C52.8049 36.7176 52.8049 36.3585 52.5551 36.2648C50.8562 35.629 50.9345 34.4432 50.3689 33.2385C50.9969 32.2714 51.3817 31.292 51.607 30.5737C51.6929 30.3004 52.0811 30.3004 52.167 30.5737C52.6724 32.1866 53.9853 35.1192 57.0472 36.2648C57.2971 36.3585 57.2971 36.7178 57.0472 36.8114Z" fill="#FEA613"/>
</svg>
