<svg width="82" height="82" viewBox="0 0 82 82" fill="none" xmlns="http://www.w3.org/2000/svg">
<path d="M19.2188 56.6287V61.8113C19.2188 62.2587 18.8602 62.6211 18.418 62.6211H10.4102C9.96796 62.6211 9.60938 62.2585 9.60938 61.8113V56.6287C9.60938 56.1815 9.96796 55.8189 10.4102 55.8189H18.418C18.8602 55.8189 19.2188 56.1815 19.2188 56.6287ZM71.2695 55.8189H63.2617C62.8195 55.8189 62.4609 56.1815 62.4609 56.6287V61.8113C62.4609 62.2587 62.8195 62.6211 63.2617 62.6211H71.2695C71.7117 62.6211 72.0703 62.2585 72.0703 61.8113V56.6287C72.0703 56.1815 71.7117 55.8189 71.2695 55.8189Z" fill="#8A90A7"/>
<path d="M74.6328 22.6181V40.4332C74.6328 41.3277 73.9158 42.0527 73.0312 42.0527H42.6016C41.717 42.0527 41 41.3277 41 40.4332C41 41.3277 40.283 42.0527 39.3984 42.0527H8.96875C8.08421 42.0527 7.36719 41.3277 7.36719 40.4332V22.6181C7.36719 20.8291 8.80123 19.3789 10.5703 19.3789H37.7969C39.566 19.3789 41 20.8291 41 22.6181C41 20.8291 42.434 19.3789 44.2031 19.3789H71.4297C73.1988 19.3789 74.6328 20.8291 74.6328 22.6181Z" fill="#6F97FF"/>
<path d="M74.6328 22.6181V40.4332C74.6328 41.0972 74.2374 41.6671 73.6719 41.9171V44.8438H43.4023V44.887H38.5977V44.8438H8.00781V41.7266C7.61943 41.4311 7.36719 40.9625 7.36719 40.4332V38.1254H24.3037C31.3799 38.1254 37.1162 32.3245 37.1162 25.1689V19.3789H37.7969C39.566 19.3789 41 20.8291 41 22.6181V34.8862C41 36.6751 42.434 38.1254 44.2031 38.1254H57.9365C65.0127 38.1254 70.749 32.3245 70.749 25.1689V19.3789H71.4297C73.1988 19.3789 74.6328 20.8291 74.6328 22.6181Z" fill="#5886FD"/>
<path d="M82 34.7646V55.8189C82 56.7134 81.283 57.4384 80.3984 57.4384H76.3945H73.9922H8.00781H5.60547H1.60156C0.71702 57.4384 0 56.7134 0 55.8189V34.7646C0 33.8702 0.71702 33.1451 1.60156 33.1451H8.00781C8.89235 33.1451 9.60938 33.8702 9.60938 34.7646V46.0206H72.3906V34.7646C72.3906 33.8702 73.1076 33.1451 73.9922 33.1451H80.3984C81.283 33.1451 82 33.8702 82 34.7646Z" fill="#8AABFF"/>
<path d="M82 34.7646V55.8189C82 56.7134 81.283 57.4384 80.3984 57.4384H76.875C77.7595 57.4384 78.4766 56.7134 78.4766 55.8189V34.7646C78.4766 33.8702 77.7595 33.1451 76.875 33.1451H80.3984C81.283 33.1451 82 33.8702 82 34.7646Z" fill="#6F97FF"/>
<path d="M74.6328 43.6722V48.5309C74.6328 49.4253 73.9158 50.1504 73.0312 50.1504H42.6016C41.717 50.1504 41 49.4253 41 48.5309C41 49.4253 40.283 50.1504 39.3984 50.1504H8.96875C8.08421 50.1504 7.36719 49.4253 7.36719 48.5309V43.6722C7.36719 42.7777 8.08421 42.0527 8.96875 42.0527H39.3984C40.283 42.0527 41 42.7777 41 43.6722C41 42.7777 41.717 42.0527 42.6016 42.0527H73.0312C73.9158 42.0527 74.6328 42.7777 74.6328 43.6722Z" fill="#4870D7"/>
<path d="M36.8359 43.6722V48.5309C36.8359 49.4253 36.1189 50.1504 35.2344 50.1504H8.96875C8.08421 50.1504 7.36719 49.4253 7.36719 48.5309V43.6722C7.36719 42.7777 8.08421 42.0527 8.96875 42.0527H35.2344C36.1189 42.0527 36.8359 42.7777 36.8359 43.6722ZM68.8672 42.0527H42.6016C41.717 42.0527 41 42.7777 41 43.6722V48.5309C41 49.4253 41.717 50.1504 42.6016 50.1504H68.8672C69.7517 50.1504 70.4688 49.4253 70.4688 48.5309V43.6722C70.4688 42.7777 69.7517 42.0527 68.8672 42.0527Z" fill="#6F97FF"/>
</svg>
