<svg width="31" height="31" viewBox="0 0 31 31" fill="none" xmlns="http://www.w3.org/2000/svg">
<path d="M14.725 13.6917C14.725 14.2624 14.2624 14.725 13.6917 14.725H1.03332C0.46255 14.7251 0 14.2624 0 13.6917V1.03332C0 0.462613 0.46255 0 1.03332 0H13.6917C14.2624 0 14.725 0.462613 14.725 1.03332V13.6917Z" fill="#FFFEFE"/>
<path d="M31 13.6917C31 14.2624 30.5375 14.725 29.9667 14.725H17.3083C16.7375 14.725 16.275 14.2624 16.275 13.6917V1.03329C16.275 0.462583 16.7375 -3.05176e-05 17.3083 -3.05176e-05H29.9666C30.5374 -3.05176e-05 31 0.462583 31 1.03329V13.6917H31Z" fill="#FFFEFE"/>
<path d="M14.725 29.9665C14.725 30.5372 14.2624 30.9998 13.6917 30.9998H1.03332C0.46255 30.9999 0 30.5372 0 29.9665V17.3081C0 16.7374 0.46255 16.2748 1.03332 16.2748H13.6917C14.2624 16.2748 14.725 16.7374 14.725 17.3081V29.9665Z" fill="#FFFEFE"/>
<path d="M31 29.9665C31 30.5372 30.5375 30.9998 29.9667 30.9998H17.3083C16.7375 30.9998 16.275 30.5372 16.275 29.9665V17.3081C16.275 16.7374 16.7375 16.2748 17.3083 16.2748H29.9666C30.5374 16.2748 31 16.7374 31 17.3081V29.9665H31Z" fill="#FFFEFE"/>
</svg>
