<svg width="58" height="57" viewBox="0 0 58 57" fill="none" xmlns="http://www.w3.org/2000/svg">
<path d="M22.607 29.4785H5.89746V57H28.5044V21.6152L22.607 29.4785Z" fill="#5886FD" fill-opacity="0.8"/>
<path d="M13.6034 12.8771C13.3134 12.3639 13.1401 11.793 13.0959 11.2052C13.0517 10.6174 13.1378 10.027 13.3479 9.47624C13.7397 8.39349 13.8536 7.22971 13.679 6.09154C13.5045 4.95338 13.047 3.87723 12.3486 2.96171C11.6503 2.04619 10.7333 1.32059 9.68174 0.851395C8.63019 0.382202 7.4777 0.184424 6.32988 0.276187L9.43588 5.66254L7.86322 8.83734L4.32474 8.61128L1.21874 3.22492C0.519474 4.23829 0.104936 5.42073 0.0183716 6.6489C-0.0681925 7.87707 0.17639 9.10596 0.726604 10.2074C1.27682 11.3088 2.11251 12.2424 3.14649 12.9108C4.18048 13.5793 5.37488 13.958 6.6051 14.0075C7.24919 14.051 7.87203 14.2556 8.41644 14.6025C8.96086 14.9494 9.40941 15.4275 9.72093 15.9929L12.9645 21.6152H18.6458L13.6034 12.8771Z" fill="#FF695E"/>
<path d="M28.5044 21.6152V57H51.1114V29.4785H34.4019L28.5044 21.6152Z" fill="#5886FD"/>
<path d="M22.607 29.4785H5.89746V32.4272H22.607L28.5044 24.5639V21.6152L22.607 29.4785Z" fill="#4E76E0" fill-opacity="0.4"/>
<path d="M34.4019 29.4785L28.5044 21.6152V24.5639L34.4019 32.4272H51.1114V29.4785H34.4019Z" fill="#4E76E0" fill-opacity="0.9"/>
<path d="M48.5166 15.5605C48.8247 15.0508 49.2402 14.6145 49.7342 14.2818C50.2282 13.949 50.7887 13.728 51.3768 13.634C52.3923 13.4503 53.3531 13.0393 54.1872 12.4316C55.0213 11.8239 55.7071 11.0353 56.1931 10.125C57.0052 8.56862 57.1992 6.76287 56.7363 5.06953C56.2733 3.37619 55.1875 1.92035 53.6965 0.993714C52.4799 0.25758 51.0651 -0.08352 49.6467 0.0173304C48.2283 0.118181 46.876 0.656027 45.7757 1.55689C44.6755 2.45775 43.8815 3.67738 43.5028 5.048C43.1241 6.41863 43.1793 7.87292 43.661 9.21085C43.8714 9.76157 43.9576 10.352 43.9134 10.9399C43.8693 11.5278 43.6958 12.0986 43.4054 12.6117L38.2058 21.6152H45.0174L48.5166 15.5605ZM47.1798 5.16912L50.1285 3.46672L53.0773 5.16912V8.57393L50.1285 10.2763L47.1798 8.57393V5.16912Z" fill="#FF695E"/>
<path d="M28.5044 21.6152H18.6458H12.9646H5.89747L0 29.4785H5.89747H22.607L28.5044 21.6152Z" fill="#5886FD" fill-opacity="0.8"/>
<path d="M45.0173 21.6152H38.2057H28.5044L34.4019 29.4785H51.1114H57.0088L51.1114 21.6152H45.0173Z" fill="#5886FD"/>
<path d="M36.3677 7.85443H33.2519L35.4536 5.65271L32.6719 2.87107L30.4702 5.0728V1.95697H26.5386V5.0728L24.3369 2.87107L21.5552 5.65271L23.7569 7.85443H20.6411V11.7861H23.7569L21.5552 13.9878L24.3369 16.7694L26.5386 14.5677V17.6835H30.4702V14.5677L32.6719 16.7694L35.4536 13.9878L33.2519 11.7861H36.3677V7.85443ZM28.5044 11.7861C28.1156 11.7861 27.7355 11.6708 27.4123 11.4548C27.089 11.2388 26.837 10.9318 26.6882 10.5725C26.5394 10.2133 26.5005 9.81808 26.5764 9.43674C26.6522 9.05541 26.8394 8.70514 27.1144 8.43021C27.3893 8.15529 27.7396 7.96806 28.1209 7.89221C28.5022 7.81636 28.8975 7.85529 29.2567 8.00407C29.6159 8.15286 29.9229 8.40483 30.1389 8.72811C30.3549 9.05138 30.4702 9.43145 30.4702 9.82026C30.4702 10.3416 30.2631 10.8416 29.8945 11.2103C29.5258 11.579 29.0258 11.7861 28.5044 11.7861Z" fill="#FDBF00"/>
<path d="M28.5044 12.769C30.1329 12.769 31.4531 11.4488 31.4531 9.82026C31.4531 8.19172 30.1329 6.87152 28.5044 6.87152C26.8759 6.87152 25.5557 8.19172 25.5557 9.82026C25.5557 11.4488 26.8759 12.769 28.5044 12.769Z" fill="#F1F2F2"/>
</svg>
