<svg width="56" height="56" viewBox="0 0 56 56" fill="none" xmlns="http://www.w3.org/2000/svg">
<g clip-path="url(#clip0)">
<path d="M18.0582 13.6595C17.6318 13.1015 16.9097 12.8392 16.2539 13.0361C15.8271 13.1673 15.3678 13.2331 14.8756 13.2331H14.7444C12.1199 13.1673 9.95416 10.8926 9.95416 8.20227C9.95416 6.16815 11.2338 4.33099 13.1367 3.60895C13.793 3.34662 14.2198 2.72284 14.2198 2.03412C14.1869 1.3454 13.7605 0.721619 13.1042 0.492188C12.087 0.164062 11.0372 0 9.95416 0C4.54095 0 0.00231934 4.53864 0.00231934 9.95227C0.00231934 15.3655 4.54095 19.7947 9.95416 19.7947C11.6606 19.7947 13.3008 19.3683 14.7444 18.548C16.0569 17.8589 17.1725 16.8091 18.0582 15.5624C18.4521 14.9716 18.4521 14.217 18.0582 13.6595Z" fill="#A7BFFF"/>
<path d="M32.8198 0.981384C32.3485 -0.316162 30.2085 -0.316162 29.7372 0.981384L20.1929 27.436C19.8819 28.2884 20.3224 29.2288 21.173 29.5381L33.9195 30.9164L37.7408 14.7229L32.8198 0.981384Z" fill="#428226"/>
<path d="M55.6992 38.791C55.404 39.2173 54.8789 39.4801 54.3542 39.4801H44.0085L41.1212 36.9867L30.032 27.439L39.5792 0.984375C39.8087 0.328125 40.4649 0 41.1212 0C41.7774 0 42.4337 0.328125 42.6631 0.984375L55.8957 37.2815C56.0931 37.7737 55.9944 38.3312 55.6992 38.791Z" fill="#6FA955"/>
<path d="M55.6993 38.791C55.4041 39.2173 54.879 39.4801 54.3543 39.4801H44.0085L41.1212 36.9867V0C41.7775 0 42.4337 0.328125 42.6631 0.984375L55.8962 37.2815C56.0932 37.7737 55.9945 38.3312 55.6993 38.791Z" fill="#428226"/>
<path d="M45.5504 29.145L42.7618 31.9666V33.2462C42.7618 34.1652 42.0402 34.8868 41.1212 34.8868C40.2026 34.8868 39.481 34.1652 39.481 33.2462V21.4349C39.481 20.5164 40.2026 19.7947 41.1212 19.7947C42.0402 19.7947 42.7618 20.5164 42.7618 21.4349V27.3079L43.254 26.8486C43.8773 26.1923 44.9271 26.1923 45.5504 26.8486C46.2067 27.4719 46.2067 28.5217 45.5504 29.145Z" fill="#B35F49"/>
<path d="M45.5505 29.145L42.7618 31.9666V33.2462C42.7618 34.1652 42.0402 34.8868 41.1212 34.8868V19.7947C42.0402 19.7947 42.7618 20.5164 42.7618 21.4349V27.3079L43.254 26.8486C43.8774 26.1923 44.9271 26.1923 45.5505 26.8486C46.2067 27.4719 46.2067 28.5217 45.5505 29.145Z" fill="#99503D"/>
<path d="M55.7321 53.4673L39.2182 27.1109C38.923 26.6516 38.3979 26.3564 37.8403 26.3564H14.8741L20.5441 43.1044L30.6553 55.9936H54.3538C54.9447 55.9936 55.5023 55.6655 55.7975 55.1408C56.0931 54.6153 56.0602 53.9924 55.7321 53.4673Z" fill="#5886FD"/>
<path d="M30.6554 55.9936H16.5148L14.8742 52.7128L13.2335 55.9936H1.64151C1.08352 55.9936 0.558437 55.6984 0.23074 55.2062C-0.0649148 54.7469 -0.0649148 54.1235 0.164944 53.6313L13.2335 27.6031H16.5144L30.6554 55.9936Z" fill="#6D96FF" fill-opacity="0.8"/>
<path d="M30.6553 55.9936H16.5148L14.8741 52.7128V27.6031H16.5148L30.6553 55.9936Z" fill="#6D96FF"/>
<path d="M16.5148 27.6031V55.9936H13.234V27.6031L13.3981 27.275C13.6933 26.6845 14.2838 26.3564 14.8742 26.3564C15.4647 26.3564 16.0555 26.6845 16.3508 27.275L16.5148 27.6031Z" fill="#668DF0"/>
</g>
<defs>
<clipPath id="clip0">
<rect width="56" height="56" fill="white"/>
</clipPath>
</defs>
</svg>
