<svg width="41" height="41" viewBox="0 0 41 41" fill="none" xmlns="http://www.w3.org/2000/svg">
<path d="M14.3987 32.144L8.28197 35.4805C7.92303 35.6762 7.60044 35.9168 7.30029 36.179C10.8665 39.1859 15.4701 41 20.5 41C25.4927 41 30.0669 39.213 33.6231 36.2471C33.2951 35.9701 32.9392 35.7211 32.5447 35.5246L25.9947 32.25C25.1484 31.8268 24.6139 30.962 24.6139 30.0159V27.446C24.798 27.2364 25.0084 26.9672 25.2335 26.6492C26.1263 25.3883 26.8016 24.0012 27.2696 22.5461C28.1097 22.287 28.7286 21.5111 28.7286 20.589V17.8458C28.7286 17.2424 28.4602 16.7032 28.0432 16.3257V12.3603C28.0432 12.3603 28.8578 6.18945 20.5007 6.18945C12.1437 6.18945 12.9583 12.3603 12.9583 12.3603V16.3257C12.5406 16.7032 12.2729 17.2424 12.2729 17.8458V20.589C12.2729 21.3115 12.6527 21.9474 13.2213 22.3148C13.9067 25.2985 15.7014 27.446 15.7014 27.446V29.9524C15.7007 30.8653 15.2009 31.7062 14.3987 32.144Z" fill="#E7ECED"/>
<path d="M20.8505 0.00311373C9.53059 -0.190282 0.196512 8.82972 0.00311575 20.1496C-0.106733 26.568 2.75398 32.3366 7.30885 36.1728C7.60668 35.9129 7.92617 35.6747 8.28125 35.4813L14.398 32.1448C15.2002 31.7069 15.6999 30.8661 15.6999 29.9517V27.4453C15.6999 27.4453 13.9044 25.2978 13.2198 22.3141C12.652 21.9466 12.2714 21.3115 12.2714 20.5882V17.8451C12.2714 17.2417 12.5398 16.7025 12.9568 16.325V12.3596C12.9568 12.3596 12.1422 6.1887 20.4992 6.1887C28.8563 6.1887 28.0417 12.3596 28.0417 12.3596V16.325C28.4594 16.7025 28.7271 17.2417 28.7271 17.8451V20.5882C28.7271 21.5103 28.1082 22.2862 27.2681 22.5454C26.8001 24.0005 26.1248 25.3875 25.232 26.6485C25.0069 26.9664 24.7965 27.2356 24.6124 27.4453V30.0151C24.6124 30.9612 25.1469 31.8268 25.9932 32.2492L32.5432 35.5238C32.9362 35.7203 33.2912 35.9686 33.6185 36.2448C38.0356 32.561 40.8894 27.0531 40.9954 20.8505C41.1903 9.53058 32.1711 0.19651 20.8505 0.00311373Z" fill="#556080"/>
</svg>
